<?xml version="1.0" encoding="UTF-8" standalone="no"?>
<!DOCTYPE svg PUBLIC "-//W3C//DTD SVG 1.1//EN"
 "http://www.w3.org/Graphics/SVG/1.1/DTD/svg11.dtd">
<!-- Generated by graphviz version 2.43.0 (0)
 -->
<!-- Title: CAT Pages: 1 -->
<svg width="990pt" height="1052pt"
 viewBox="0.00 0.00 990.00 1052.40" xmlns="http://www.w3.org/2000/svg" xmlns:xlink="http://www.w3.org/1999/xlink">
<g id="graph0" class="graph" transform="scale(1 1) rotate(0) translate(4 1048.4)">
<title>CAT</title>
<polygon fill="white" stroke="transparent" points="-4,4 -4,-1048.4 986,-1048.4 986,4 -4,4"/>
<!-- START -->
<g id="node1" class="node">
<title>START</title>
<ellipse fill="#1a6b4a" stroke="#145438" stroke-width="1.8" cx="178" cy="-1014.7" rx="169" ry="29.9"/>
<text text-anchor="start" x="74.5" y="-1017.9" font-family="Helvetica,sans-Serif" font-size="11.00" fill="white">Confirmed Cancer&#45;Associated VTE</text>
<text text-anchor="start" x="74.5" y="-1005.9" font-family="Helvetica,sans-Serif" font-size="11.00" fill="white">(DVT &#160;/ &#160;PE &#160;/ &#160;Splanchnic thrombosis)</text>
</g>
<!-- DEC1 -->
<g id="node2" class="node">
<title>DEC1</title>
<polygon fill="#fee2e2" stroke="#991b1b" stroke-width="1.8" points="178,-944 0,-902 178,-860 356,-902 178,-944"/>
<text text-anchor="middle" x="178" y="-905.2" font-family="Helvetica,sans-Serif" font-size="11.00" fill="#991b1b">Platelet &lt;50 x10u2079/L</text>
<text text-anchor="middle" x="178" y="-893.2" font-family="Helvetica,sans-Serif" font-size="11.00" fill="#991b1b">OR active major bleeding?</text>
</g>
<!-- START&#45;&gt;DEC1 -->
<g id="edge1" class="edge">
<title>START&#45;&gt;DEC1</title>
<path fill="none" stroke="black" stroke-width="1.6" d="M178,-984.9C178,-975.19 178,-964.06 178,-953.19"/>
<polygon fill="black" stroke="black" stroke-width="1.6" points="181.15,-953.15 178,-944.15 174.85,-953.15 181.15,-953.15"/>
</g>
<!-- WITHHOLD -->
<g id="node3" class="node">
<title>WITHHOLD</title>
<path fill="#991b1b" stroke="#7f1d1d" stroke-width="1.8" d="M241.5,-794C241.5,-794 48.5,-794 48.5,-794 42.5,-794 36.5,-788 36.5,-782 36.5,-782 36.5,-752 36.5,-752 36.5,-746 42.5,-740 48.5,-740 48.5,-740 241.5,-740 241.5,-740 247.5,-740 253.5,-746 253.5,-752 253.5,-752 253.5,-782 253.5,-782 253.5,-788 247.5,-794 241.5,-794"/>
<text text-anchor="start" x="52.5" y="-776.2" font-family="Helvetica,sans-Serif" font-size="11.00" fill="white">Withhold anticoagulation</text>
<text text-anchor="start" x="52.5" y="-764.2" font-family="Helvetica,sans-Serif" font-size="11.00" fill="white">Address bleeding source urgently</text>
<text text-anchor="start" x="52.5" y="-752.2" font-family="Helvetica,sans-Serif" font-size="11.00" fill="white">Urgent haematology input</text>
</g>
<!-- DEC1&#45;&gt;WITHHOLD -->
<g id="edge2" class="edge">
<title>DEC1&#45;&gt;WITHHOLD</title>
<path fill="none" stroke="#991b1b" stroke-width="1.6" d="M168.37,-862.17C163.73,-843.5 158.22,-821.28 153.71,-803.12"/>
<polygon fill="#991b1b" stroke="#991b1b" stroke-width="1.6" points="156.68,-802.01 151.46,-794.03 150.57,-803.52 156.68,-802.01"/>
<text text-anchor="middle" x="175.5" y="-832" font-family="Helvetica,sans-Serif" font-size="10.00" fill="#991b1b"> &#160;YES</text>
</g>
<!-- DEC2 -->
<g id="node4" class="node">
<title>DEC2</title>
<polygon fill="#fef3c7" stroke="#d97706" stroke-width="1.8" points="404,-809 290,-767 404,-725 518,-767 404,-809"/>
<text text-anchor="middle" x="404" y="-770.2" font-family="Helvetica,sans-Serif" font-size="11.00" fill="#92400e">GI, GU or brain</text>
<text text-anchor="middle" x="404" y="-758.2" font-family="Helvetica,sans-Serif" font-size="11.00" fill="#92400e">malignancy?</text>
</g>
<!-- DEC1&#45;&gt;DEC2 -->
<g id="edge3" class="edge">
<title>DEC1&#45;&gt;DEC2</title>
<path fill="none" stroke="black" stroke-width="1.6" d="M227.88,-871.65C265.13,-849.72 315.87,-819.86 353.32,-797.83"/>
<polygon fill="black" stroke="black" stroke-width="1.6" points="354.94,-800.53 361.1,-793.25 351.74,-795.1 354.94,-800.53"/>
<text text-anchor="middle" x="309" y="-832" font-family="Helvetica,sans-Serif" font-size="10.00"> &#160;NO</text>
</g>
<!-- LMWH1 -->
<g id="node5" class="node">
<title>LMWH1</title>
<path fill="#1e3a5f" stroke="#1e3a5f" stroke-width="1.8" d="M445,-570C445,-570 209,-570 209,-570 203,-570 197,-564 197,-558 197,-558 197,-516 197,-516 197,-510 203,-504 209,-504 209,-504 445,-504 445,-504 451,-504 457,-510 457,-516 457,-516 457,-558 457,-558 457,-564 451,-570 445,-570"/>
<text text-anchor="start" x="213" y="-552.2" font-family="Helvetica,sans-Serif" font-size="11.00" fill="white">LMWH Preferred &#160;(Strong | High)</text>
<text text-anchor="start" x="213" y="-540.2" font-family="Helvetica,sans-Serif" font-size="11.00" fill="white">Dalteparin &#160;/ &#160;Tinzaparin &#160;/ &#160;Enoxaparin</text>
<text text-anchor="start" x="213" y="-528.2" font-family="Helvetica,sans-Serif" font-size="11.00" fill="white">Higher mucosal bleeding risk with DOACs</text>
<text text-anchor="start" x="213" y="-516.2" font-family="Helvetica,sans-Serif" font-size="11.00" fill="white">in GI and GU malignancy</text>
</g>
<!-- DEC2&#45;&gt;LMWH1 -->
<g id="edge4" class="edge">
<title>DEC2&#45;&gt;LMWH1</title>
<path fill="none" stroke="#1e3a5f" stroke-width="1.6" d="M388.53,-730.43C377.28,-704.54 364,-674 364,-674 364,-674 349.06,-619.07 338.16,-579.03"/>
<polygon fill="#1e3a5f" stroke="#1e3a5f" stroke-width="1.6" points="341.17,-578.09 335.77,-570.23 335.09,-579.74 341.17,-578.09"/>
<text text-anchor="middle" x="390.5" y="-697" font-family="Helvetica,sans-Serif" font-size="10.00" fill="#1e3a5f"> &#160;YES</text>
</g>
<!-- DEC3 -->
<g id="node6" class="node">
<title>DEC3</title>
<polygon fill="#fef3c7" stroke="#d97706" stroke-width="1.8" points="569,-674 382,-632 569,-590 756,-632 569,-674"/>
<text text-anchor="middle" x="569" y="-635.2" font-family="Helvetica,sans-Serif" font-size="11.00" fill="#92400e">Significant drug interactions</text>
<text text-anchor="middle" x="569" y="-623.2" font-family="Helvetica,sans-Serif" font-size="11.00" fill="#92400e">or CrCl &lt;30 mL/min?</text>
</g>
<!-- DEC2&#45;&gt;DEC3 -->
<g id="edge5" class="edge">
<title>DEC2&#45;&gt;DEC3</title>
<path fill="none" stroke="black" stroke-width="1.6" d="M438.99,-737.79C463.12,-718.35 495.46,-692.27 521.86,-671"/>
<polygon fill="black" stroke="black" stroke-width="1.6" points="524.1,-673.24 529.13,-665.14 520.15,-668.33 524.1,-673.24"/>
<text text-anchor="middle" x="502" y="-697" font-family="Helvetica,sans-Serif" font-size="10.00"> &#160;NO</text>
</g>
<!-- DURATION -->
<g id="node9" class="node">
<title>DURATION</title>
<path fill="#f3f4f6" stroke="#6b7280" stroke-width="1.8" d="M642,-389C642,-389 336,-389 336,-389 330,-389 324,-383 324,-377 324,-377 324,-359 324,-359 324,-353 330,-347 336,-347 336,-347 642,-347 642,-347 648,-347 654,-353 654,-359 654,-359 654,-377 654,-377 654,-383 648,-389 642,-389"/>
<text text-anchor="start" x="340" y="-371.2" font-family="Helvetica,sans-Serif" font-size="11.00" fill="#111827">Duration: minimum 6 months &#160;(Strong | Moderate)</text>
<text text-anchor="start" x="340" y="-359.2" font-family="Helvetica,sans-Serif" font-size="11.00" fill="#111827">Reassess at 6 months &#160;&#45; &#160;balance bleeding vs clot risk</text>
</g>
<!-- LMWH1&#45;&gt;DURATION -->
<g id="edge8" class="edge">
<title>LMWH1&#45;&gt;DURATION</title>
<path fill="none" stroke="black" stroke-width="1.6" d="M338.2,-503.91C349.09,-472.71 364,-430 364,-430 364,-430 404.55,-410.21 439.46,-393.18"/>
<polygon fill="black" stroke="black" stroke-width="1.6" points="441.02,-395.92 447.72,-389.14 438.25,-390.26 441.02,-395.92"/>
</g>
<!-- LMWH2 -->
<g id="node7" class="node">
<title>LMWH2</title>
<path fill="#1e3a5f" stroke="#1e3a5f" stroke-width="1.8" d="M584,-484C584,-484 394,-484 394,-484 388,-484 382,-478 382,-472 382,-472 382,-442 382,-442 382,-436 388,-430 394,-430 394,-430 584,-430 584,-430 590,-430 596,-436 596,-442 596,-442 596,-472 596,-472 596,-478 590,-484 584,-484"/>
<text text-anchor="start" x="398" y="-466.2" font-family="Helvetica,sans-Serif" font-size="11.00" fill="white">LMWH Preferred &#160;(Strong | High)</text>
<text text-anchor="start" x="398" y="-454.2" font-family="Helvetica,sans-Serif" font-size="11.00" fill="white">Weight&#45;based dosing</text>
<text text-anchor="start" x="398" y="-442.2" font-family="Helvetica,sans-Serif" font-size="11.00" fill="white">Adjust dose for renal impairment</text>
</g>
<!-- DEC3&#45;&gt;LMWH2 -->
<g id="edge6" class="edge">
<title>DEC3&#45;&gt;LMWH2</title>
<path fill="none" stroke="#1e3a5f" stroke-width="1.6" d="M547.44,-594.46C539.77,-581.47 533,-570 533,-570 533,-570 515.57,-525.64 502.66,-492.76"/>
<polygon fill="#1e3a5f" stroke="#1e3a5f" stroke-width="1.6" points="505.54,-491.48 499.32,-484.26 499.68,-493.79 505.54,-491.48"/>
<text text-anchor="middle" x="545.5" y="-534.5" font-family="Helvetica,sans-Serif" font-size="10.00" fill="#1e3a5f"> &#160;YES</text>
</g>
<!-- APIX -->
<g id="node8" class="node">
<title>APIX</title>
<path fill="#1a6b4a" stroke="#145438" stroke-width="1.8" d="M970,-484C970,-484 644,-484 644,-484 638,-484 632,-478 632,-472 632,-472 632,-442 632,-442 632,-436 638,-430 644,-430 644,-430 970,-430 970,-430 976,-430 982,-436 982,-442 982,-442 982,-472 982,-472 982,-478 976,-484 970,-484"/>
<text text-anchor="start" x="648" y="-466.2" font-family="Helvetica,sans-Serif" font-size="11.00" fill="white">APIXABAN &#160;(Preferred DOAC) &#160;CARAVAGGIO &#160;Strong | High</text>
<text text-anchor="start" x="648" y="-454.2" font-family="Helvetica,sans-Serif" font-size="11.00" fill="white">10 mg twice daily x 7 days &#160;then &#160;5 mg twice daily</text>
<text text-anchor="start" x="648" y="-442.2" font-family="Helvetica,sans-Serif" font-size="11.00" fill="white">No parenteral bridging needed</text>
</g>
<!-- DEC3&#45;&gt;APIX -->
<g id="edge7" class="edge">
<title>DEC3&#45;&gt;APIX</title>
<path fill="none" stroke="#1a6b4a" stroke-width="1.6" d="M612.1,-599.67C655.07,-568.44 720.69,-520.74 763.72,-489.46"/>
<polygon fill="#1a6b4a" stroke="#1a6b4a" stroke-width="1.6" points="765.78,-491.85 771.21,-484.01 762.08,-486.76 765.78,-491.85"/>
<text text-anchor="middle" x="754" y="-534.5" font-family="Helvetica,sans-Serif" font-size="10.00" fill="#1a6b4a"> &#160;NO</text>
</g>
<!-- LMWH2&#45;&gt;DURATION -->
<g id="edge9" class="edge">
<title>LMWH2&#45;&gt;DURATION</title>
<path fill="none" stroke="black" stroke-width="1.6" d="M489,-429.9C489,-420.04 489,-408.75 489,-398.59"/>
<polygon fill="black" stroke="black" stroke-width="1.6" points="492.15,-398.28 489,-389.28 485.85,-398.28 492.15,-398.28"/>
</g>
<!-- APIX&#45;&gt;DURATION -->
<g id="edge10" class="edge">
<title>APIX&#45;&gt;DURATION</title>
<path fill="none" stroke="black" stroke-width="1.6" d="M711.59,-429.9C666.83,-417.65 614.03,-403.21 571.08,-391.46"/>
<polygon fill="black" stroke="black" stroke-width="1.6" points="571.87,-388.41 562.35,-389.07 570.2,-394.48 571.87,-388.41"/>
</g>
<!-- DEC4 -->
<g id="node10" class="node">
<title>DEC4</title>
<polygon fill="#f3f4f6" stroke="#6b7280" stroke-width="1.8" points="489,-306 381,-264 489,-222 597,-264 489,-306"/>
<text text-anchor="middle" x="489" y="-267.2" font-family="Helvetica,sans-Serif" font-size="11.00" fill="#374151">Active cancer</text>
<text text-anchor="middle" x="489" y="-255.2" font-family="Helvetica,sans-Serif" font-size="11.00" fill="#374151">at 6 months?</text>
</g>
<!-- DURATION&#45;&gt;DEC4 -->
<g id="edge11" class="edge">
<title>DURATION&#45;&gt;DEC4</title>
<path fill="none" stroke="black" stroke-width="1.6" d="M489,-346.85C489,-337.78 489,-326.62 489,-315.49"/>
<polygon fill="black" stroke="black" stroke-width="1.6" points="492.15,-315.2 489,-306.2 485.85,-315.2 492.15,-315.2"/>
</g>
<!-- CONTINUE -->
<g id="node11" class="node">
<title>CONTINUE</title>
<path fill="#d1fae5" stroke="#1a6b4a" stroke-width="1.8" d="M468.5,-171C468.5,-171 211.5,-171 211.5,-171 205.5,-171 199.5,-165 199.5,-159 199.5,-159 199.5,-129 199.5,-129 199.5,-123 205.5,-117 211.5,-117 211.5,-117 468.5,-117 468.5,-117 474.5,-117 480.5,-123 480.5,-129 480.5,-129 480.5,-159 480.5,-159 480.5,-165 474.5,-171 468.5,-171"/>
<text text-anchor="start" x="215.5" y="-153.2" font-family="Helvetica,sans-Serif" font-size="11.00" fill="#065f46">Continue anticoagulation &#160;(Conditional | Low)</text>
<text text-anchor="start" x="215.5" y="-141.2" font-family="Helvetica,sans-Serif" font-size="11.00" fill="#065f46">Reassess at every clinic review</text>
<text text-anchor="start" x="215.5" y="-129.2" font-family="Helvetica,sans-Serif" font-size="11.00" fill="#065f46">Balance ongoing VTE vs bleeding risk</text>
</g>
<!-- DEC4&#45;&gt;CONTINUE -->
<g id="edge12" class="edge">
<title>DEC4&#45;&gt;CONTINUE</title>
<path fill="none" stroke="#1a6b4a" stroke-width="1.6" d="M454.07,-235.33C431.95,-217.82 403.27,-195.11 380.2,-176.84"/>
<polygon fill="#1a6b4a" stroke="#1a6b4a" stroke-width="1.6" points="381.94,-174.19 372.93,-171.08 378.03,-179.13 381.94,-174.19"/>
<text text-anchor="middle" x="423.5" y="-194" font-family="Helvetica,sans-Serif" font-size="10.00" fill="#1a6b4a"> &#160;YES</text>
</g>
<!-- STOP -->
<g id="node12" class="node">
<title>STOP</title>
<path fill="#fffbeb" stroke="#d97706" stroke-width="1.8" d="M793.5,-171C793.5,-171 574.5,-171 574.5,-171 568.5,-171 562.5,-165 562.5,-159 562.5,-159 562.5,-129 562.5,-129 562.5,-123 568.5,-117 574.5,-117 574.5,-117 793.5,-117 793.5,-117 799.5,-117 805.5,-123 805.5,-129 805.5,-129 805.5,-159 805.5,-159 805.5,-165 799.5,-171 793.5,-171"/>
<text text-anchor="start" x="578.5" y="-153.2" font-family="Helvetica,sans-Serif" font-size="11.00" fill="#92400e">Consider stopping &#160;(Conditional | Low)</text>
<text text-anchor="start" x="578.5" y="-141.2" font-family="Helvetica,sans-Serif" font-size="11.00" fill="#92400e">Individualise decision</text>
<text text-anchor="start" x="578.5" y="-129.2" font-family="Helvetica,sans-Serif" font-size="11.00" fill="#92400e">Discuss risks/benefits with patient</text>
</g>
<!-- DEC4&#45;&gt;STOP -->
<g id="edge13" class="edge">
<title>DEC4&#45;&gt;STOP</title>
<path fill="none" stroke="black" stroke-width="1.6" d="M530.35,-237.98C560.35,-219.83 601.09,-195.17 633.08,-175.81"/>
<polygon fill="black" stroke="black" stroke-width="1.6" points="634.95,-178.36 641.02,-171.01 631.69,-172.97 634.95,-178.36"/>
<text text-anchor="middle" x="614" y="-194" font-family="Helvetica,sans-Serif" font-size="10.00"> &#160;NO</text>
</g>
<!-- RECUR -->
<g id="node13" class="node">
<title>RECUR</title>
<path fill="#f5f3ff" stroke="#7c3aed" stroke-width="1.8" d="M455,-60C455,-60 179,-60 179,-60 173,-60 167,-54 167,-48 167,-48 167,-18 167,-18 167,-12 173,-6 179,-6 179,-6 455,-6 455,-6 461,-6 467,-12 467,-18 467,-18 467,-48 467,-48 467,-54 461,-60 455,-60"/>
<text text-anchor="start" x="183" y="-42.2" font-family="Helvetica,sans-Serif" font-size="11.00" fill="#4c1d95">Recurrence on DOAC &#160;&#45;&gt; &#160;switch to LMWH</text>
<text text-anchor="start" x="183" y="-30.2" font-family="Helvetica,sans-Serif" font-size="11.00" fill="#4c1d95">Recurrence on LMWH &#160;&#45;&gt; &#160;escalate dose 20&#45;25%</text>
<text text-anchor="start" x="183" y="-18.2" font-family="Helvetica,sans-Serif" font-size="11.00" fill="#4c1d95">Seek specialist haematology input</text>
</g>
<!-- CONTINUE&#45;&gt;RECUR -->
<g id="edge14" class="edge">
<title>CONTINUE&#45;&gt;RECUR</title>
<path fill="none" stroke="black" stroke-width="1.6" stroke-dasharray="5,2" d="M334.49,-116.89C331.47,-102.57 327.68,-84.62 324.4,-69.09"/>
<polygon fill="black" stroke="black" stroke-width="1.6" points="327.48,-68.43 322.54,-60.27 321.32,-69.73 327.48,-68.43"/>
</g>
<!-- THROMB -->
<g id="node14" class="node">
<title>THROMB</title>
<path fill="#eff6ff" stroke="#3b82f6" stroke-width="1.8" d="M899,-66C899,-66 515,-66 515,-66 509,-66 503,-60 503,-54 503,-54 503,-12 503,-12 503,-6 509,0 515,0 515,0 899,0 899,0 905,0 911,-6 911,-12 911,-12 911,-54 911,-54 911,-60 905,-66 899,-66"/>
<text text-anchor="start" x="519" y="-48.2" font-family="Helvetica,sans-Serif" font-size="11.00" fill="#1e40af">Thrombocytopenia thresholds &#160;(BSH 2024 &#160;| &#160;Conditional | Very Low)</text>
<text text-anchor="start" x="519" y="-36.2" font-family="Helvetica,sans-Serif" font-size="11.00" fill="#1e40af">&lt;25 x10u2079/L &#160;&#45;&gt; &#160;hold anticoagulation</text>
<text text-anchor="start" x="519" y="-24.2" font-family="Helvetica,sans-Serif" font-size="11.00" fill="#1e40af">25&#45;49 &#160;&#45;&gt; &#160;half&#45;dose LMWH</text>
<text text-anchor="start" x="519" y="-12.2" font-family="Helvetica,sans-Serif" font-size="11.00" fill="#1e40af">&gt;=50 &#160;&#45;&gt; &#160;full therapeutic dose</text>
</g>
<!-- STOP&#45;&gt;THROMB -->
<g id="edge15" class="edge">
<title>STOP&#45;&gt;THROMB</title>
<path fill="none" stroke="black" stroke-width="1.6" stroke-dasharray="5,2" d="M689.51,-116.89C692.15,-104.39 695.37,-89.12 698.33,-75.11"/>
<polygon fill="black" stroke="black" stroke-width="1.6" points="701.44,-75.58 700.22,-66.13 695.28,-74.28 701.44,-75.58"/>
<text text-anchor="middle" x="722.5" y="-89" font-family="Helvetica,sans-Serif" font-size="10.00"> &#160;also note:</text>
</g>
</g>
</svg>
