<?xml version="1.0" encoding="UTF-8" standalone="no"?>
<!DOCTYPE svg PUBLIC "-//W3C//DTD SVG 1.1//EN"
 "http://www.w3.org/Graphics/SVG/1.1/DTD/svg11.dtd">
<!-- Generated by graphviz version 2.43.0 (0)
 -->
<!-- Title: CLL_Algorithm Pages: 1 -->
<svg width="1012pt" height="1361pt"
 viewBox="0.00 0.00 1012.10 1360.83" xmlns="http://www.w3.org/2000/svg" xmlns:xlink="http://www.w3.org/1999/xlink">
<g id="graph0" class="graph" transform="scale(1 1) rotate(0) translate(28.8 1332.03)">
<title>CLL_Algorithm</title>
<polygon fill="white" stroke="transparent" points="-28.8,28.8 -28.8,-1332.03 983.3,-1332.03 983.3,28.8 -28.8,28.8"/>
<!-- START -->
<g id="node1" class="node">
<title>START</title>
<ellipse fill="#1e3a5f" stroke="black" stroke-width="1.5" cx="165.5" cy="-1272.11" rx="144.91" ry="31.23"/>
<text text-anchor="middle" x="165.5" y="-1275.51" font-family="Helvetica,sans-Serif" font-size="12.00" fill="white">CLL Confirmed</text>
<text text-anchor="middle" x="165.5" y="-1262.51" font-family="Helvetica,sans-Serif" font-size="12.00" fill="white">Flow cytometry + Matutes ≥4</text>
</g>
<!-- WORKUP -->
<g id="node2" class="node">
<title>WORKUP</title>
<path fill="#eff6ff" stroke="black" stroke-width="1.5" d="M275,-1200C275,-1200 56,-1200 56,-1200 50,-1200 44,-1194 44,-1188 44,-1188 44,-1158 44,-1158 44,-1152 50,-1146 56,-1146 56,-1146 275,-1146 275,-1146 281,-1146 287,-1152 287,-1158 287,-1158 287,-1188 287,-1188 287,-1194 281,-1200 275,-1200"/>
<text text-anchor="middle" x="165.5" y="-1182.2" font-family="Helvetica,sans-Serif" font-size="11.00" fill="#1e3a5f">Prognostic Work&#45;up</text>
<text text-anchor="middle" x="165.5" y="-1170.2" font-family="Helvetica,sans-Serif" font-size="11.00" fill="#1e3a5f">FISH · TP53 seq · IGHV · LDH · β2M</text>
<text text-anchor="middle" x="165.5" y="-1158.2" font-family="Helvetica,sans-Serif" font-size="11.00" fill="#1e3a5f">Immunoglobulins · Virology panel · DAT</text>
</g>
<!-- START&#45;&gt;WORKUP -->
<g id="edge1" class="edge">
<title>START&#45;&gt;WORKUP</title>
<path fill="none" stroke="black" stroke-width="1.3" d="M165.5,-1240.92C165.5,-1231.25 165.5,-1220.44 165.5,-1210.38"/>
<polygon fill="black" stroke="black" stroke-width="1.3" points="169,-1210.24 165.5,-1200.24 162,-1210.24 169,-1210.24"/>
</g>
<!-- DEC_IWCLL -->
<g id="node3" class="node">
<title>DEC_IWCLL</title>
<path fill="#fef3c7" stroke="black" stroke-width="1.5" d="M154.71,-1099.76C154.71,-1099.76 71.29,-1059.24 71.29,-1059.24 65.9,-1056.62 65.9,-1051.38 71.29,-1048.76 71.29,-1048.76 154.71,-1008.24 154.71,-1008.24 160.1,-1005.62 170.9,-1005.62 176.29,-1008.24 176.29,-1008.24 259.71,-1048.76 259.71,-1048.76 265.1,-1051.38 265.1,-1056.62 259.71,-1059.24 259.71,-1059.24 176.29,-1099.76 176.29,-1099.76 170.9,-1102.38 160.1,-1102.38 154.71,-1099.76"/>
<text text-anchor="middle" x="165.5" y="-1062.5" font-family="Helvetica,sans-Serif" font-size="10.00" fill="#78350f">iwCLL Active</text>
<text text-anchor="middle" x="165.5" y="-1051.5" font-family="Helvetica,sans-Serif" font-size="10.00" fill="#78350f">Disease Criteria</text>
<text text-anchor="middle" x="165.5" y="-1040.5" font-family="Helvetica,sans-Serif" font-size="10.00" fill="#78350f">Met?</text>
</g>
<!-- WORKUP&#45;&gt;DEC_IWCLL -->
<g id="edge2" class="edge">
<title>WORKUP&#45;&gt;DEC_IWCLL</title>
<path fill="none" stroke="black" stroke-width="1.3" d="M165.5,-1145.74C165.5,-1136.65 165.5,-1126.06 165.5,-1115.38"/>
<polygon fill="black" stroke="black" stroke-width="1.3" points="169,-1115.16 165.5,-1105.16 162,-1115.16 169,-1115.16"/>
</g>
<!-- WATCHANDWAIT -->
<g id="node4" class="node">
<title>WATCHANDWAIT</title>
<path fill="#f0fdf4" stroke="black" stroke-width="1.5" d="M207,-930C207,-930 12,-930 12,-930 6,-930 0,-924 0,-918 0,-918 0,-888 0,-888 0,-882 6,-876 12,-876 12,-876 207,-876 207,-876 213,-876 219,-882 219,-888 219,-888 219,-918 219,-918 219,-924 213,-930 207,-930"/>
<text text-anchor="middle" x="109.5" y="-912.2" font-family="Helvetica,sans-Serif" font-size="11.00" fill="#166534">Watch and Wait</text>
<text text-anchor="middle" x="109.5" y="-900.2" font-family="Helvetica,sans-Serif" font-size="11.00" fill="#166534">Clinical review 3–6 monthly</text>
<text text-anchor="middle" x="109.5" y="-888.2" font-family="Helvetica,sans-Serif" font-size="11.00" fill="#166534">Repeat FBC; reassess at each visit</text>
</g>
<!-- DEC_IWCLL&#45;&gt;WATCHANDWAIT -->
<g id="edge3" class="edge">
<title>DEC_IWCLL&#45;&gt;WATCHANDWAIT</title>
<path fill="none" stroke="black" stroke-width="1.3" d="M135.15,-1017.59C120.27,-1000.23 105.5,-983 105.5,-983 105.5,-983 105.5,-963 105.5,-963 105.5,-963 106.22,-952.33 107.06,-940.06"/>
<polygon fill="black" stroke="black" stroke-width="1.3" points="110.55,-940.26 107.73,-930.05 103.57,-939.79 110.55,-940.26"/>
<text text-anchor="middle" x="113" y="-970.4" font-family="Helvetica,sans-Serif" font-size="9.50">NO</text>
</g>
<!-- DEC_TP53 -->
<g id="node5" class="node">
<title>DEC_TP53</title>
<path fill="#fef3c7" stroke="black" stroke-width="1.5" d="M345.33,-938.62C345.33,-938.62 265.67,-907.38 265.67,-907.38 260.09,-905.19 260.09,-900.81 265.67,-898.62 265.67,-898.62 345.33,-867.38 345.33,-867.38 350.91,-865.19 362.09,-865.19 367.67,-867.38 367.67,-867.38 447.33,-898.62 447.33,-898.62 452.91,-900.81 452.91,-905.19 447.33,-907.38 447.33,-907.38 367.67,-938.62 367.67,-938.62 362.09,-940.81 350.91,-940.81 345.33,-938.62"/>
<text text-anchor="middle" x="356.5" y="-906" font-family="Helvetica,sans-Serif" font-size="10.00" fill="#78350f">del(17p) and/or</text>
<text text-anchor="middle" x="356.5" y="-895" font-family="Helvetica,sans-Serif" font-size="10.00" fill="#78350f">TP53 Mutation?</text>
</g>
<!-- DEC_IWCLL&#45;&gt;DEC_TP53 -->
<g id="edge4" class="edge">
<title>DEC_IWCLL&#45;&gt;DEC_TP53</title>
<path fill="none" stroke="black" stroke-width="1.3" d="M205.08,-1022.13C237.21,-997.06 282.38,-961.82 315.02,-936.36"/>
<polygon fill="black" stroke="black" stroke-width="1.3" points="317.3,-939.02 323.03,-930.11 312.99,-933.5 317.3,-939.02"/>
<text text-anchor="middle" x="288" y="-970.4" font-family="Helvetica,sans-Serif" font-size="9.50">YES</text>
</g>
<!-- WATCHANDWAIT&#45;&gt;DEC_IWCLL -->
<g id="edge19" class="edge">
<title>WATCHANDWAIT&#45;&gt;DEC_IWCLL</title>
<path fill="none" stroke="#6b717a" stroke-width="1.3" stroke-dasharray="5,2" d="M119.28,-930.01C126.66,-949.66 137.03,-977.25 146.08,-1001.33"/>
<polygon fill="#6b717a" stroke="#6b717a" stroke-width="1.3" points="142.81,-1002.57 149.6,-1010.7 149.36,-1000.11 142.81,-1002.57"/>
<text text-anchor="middle" x="169.5" y="-975.4" font-family="Helvetica,sans-Serif" font-size="9.50">Reassess</text>
<text text-anchor="middle" x="169.5" y="-965.4" font-family="Helvetica,sans-Serif" font-size="9.50">at each visit</text>
</g>
<!-- TP53_BLOCK -->
<g id="node6" class="node">
<title>TP53_BLOCK</title>
<path fill="#fee2e2" stroke="black" stroke-width="1.5" d="M264,-800C264,-800 81,-800 81,-800 75,-800 69,-794 69,-788 69,-788 69,-758 69,-758 69,-752 75,-746 81,-746 81,-746 264,-746 264,-746 270,-746 276,-752 276,-758 276,-758 276,-788 276,-788 276,-794 270,-800 264,-800"/>
<text text-anchor="middle" x="172.5" y="-782.2" font-family="Helvetica,sans-Serif" font-size="11.00" fill="#991b1b">⚠ &#160;TP53&#45;Aberrant CLL</text>
<text text-anchor="middle" x="172.5" y="-770.2" font-family="Helvetica,sans-Serif" font-size="11.00" fill="#991b1b">Avoid ALL chemoimmunotherapy</text>
<text text-anchor="middle" x="172.5" y="-758.2" font-family="Helvetica,sans-Serif" font-size="11.00" fill="#991b1b">(FCR, BR, Clb&#45;Obi ineffective)</text>
</g>
<!-- DEC_TP53&#45;&gt;TP53_BLOCK -->
<g id="edge5" class="edge">
<title>DEC_TP53&#45;&gt;TP53_BLOCK</title>
<path fill="none" stroke="black" stroke-width="1.3" d="M320.59,-877.02C291.3,-856.65 249.77,-827.75 218.13,-805.74"/>
<polygon fill="black" stroke="black" stroke-width="1.3" points="220.11,-802.86 209.9,-800.02 216.11,-808.6 220.11,-802.86"/>
<text text-anchor="middle" x="280" y="-835.4" font-family="Helvetica,sans-Serif" font-size="9.50">YES</text>
</g>
<!-- DEC_FIT -->
<g id="node8" class="node">
<title>DEC_FIT</title>
<path fill="#fef3c7" stroke="black" stroke-width="1.5" d="M467.83,-810.2C467.83,-810.2 324.17,-775.8 324.17,-775.8 318.33,-774.4 318.33,-771.6 324.17,-770.2 324.17,-770.2 467.83,-735.8 467.83,-735.8 473.67,-734.4 485.33,-734.4 491.17,-735.8 491.17,-735.8 634.83,-770.2 634.83,-770.2 640.67,-771.6 640.67,-774.4 634.83,-775.8 634.83,-775.8 491.17,-810.2 491.17,-810.2 485.33,-811.6 473.67,-811.6 467.83,-810.2"/>
<text text-anchor="middle" x="479.5" y="-776" font-family="Helvetica,sans-Serif" font-size="10.00" fill="#78350f">Fitness Assessment</text>
<text text-anchor="middle" x="479.5" y="-765" font-family="Helvetica,sans-Serif" font-size="10.00" fill="#78350f">CIRS · eGFR · ECOG · Cardiac</text>
</g>
<!-- DEC_TP53&#45;&gt;DEC_FIT -->
<g id="edge7" class="edge">
<title>DEC_TP53&#45;&gt;DEC_FIT</title>
<path fill="none" stroke="black" stroke-width="1.3" d="M383.8,-873.59C400.87,-855.83 423.09,-832.7 441.83,-813.2"/>
<polygon fill="black" stroke="black" stroke-width="1.3" points="444.41,-815.56 448.82,-805.93 439.37,-810.71 444.41,-815.56"/>
<text text-anchor="middle" x="429" y="-835.4" font-family="Helvetica,sans-Serif" font-size="9.50">NO</text>
</g>
<!-- TP53_TX -->
<g id="node7" class="node">
<title>TP53_TX</title>
<path fill="#eff6ff" stroke="black" stroke-width="1.5" d="M267,-671C267,-671 78,-671 78,-671 72,-671 66,-665 66,-659 66,-659 66,-605 66,-605 66,-599 72,-593 78,-593 78,-593 267,-593 267,-593 273,-593 279,-599 279,-605 279,-605 279,-659 279,-659 279,-665 273,-671 267,-671"/>
<text text-anchor="middle" x="172.5" y="-653.2" font-family="Helvetica,sans-Serif" font-size="11.00" fill="#1e3a5f">First&#45;Line Options (TP53&#45;aberrant)</text>
<text text-anchor="middle" x="172.5" y="-641.2" font-family="Helvetica,sans-Serif" font-size="11.00" fill="#1e3a5f">─────────────────────────</text>
<text text-anchor="middle" x="172.5" y="-629.2" font-family="Helvetica,sans-Serif" font-size="11.00" fill="#1e3a5f">Ibrutinib 420 mg OD &#160;[TA429]</text>
<text text-anchor="middle" x="172.5" y="-617.2" font-family="Helvetica,sans-Serif" font-size="11.00" fill="#1e3a5f">Acalabrutinib ± Obi &#160;[TA795]</text>
<text text-anchor="middle" x="172.5" y="-605.2" font-family="Helvetica,sans-Serif" font-size="11.00" fill="#1e3a5f">Venetoclax + Obi 12cx &#160;[TA663]</text>
</g>
<!-- TP53_BLOCK&#45;&gt;TP53_TX -->
<g id="edge6" class="edge">
<title>TP53_BLOCK&#45;&gt;TP53_TX</title>
<path fill="none" stroke="black" stroke-width="1.3" d="M172.5,-745.86C172.5,-727.66 172.5,-702.87 172.5,-681.15"/>
<polygon fill="black" stroke="black" stroke-width="1.3" points="176,-681.1 172.5,-671.1 169,-681.1 176,-681.1"/>
</g>
<!-- RESPONSE -->
<g id="node11" class="node">
<title>RESPONSE</title>
<path fill="#f5f3ff" stroke="black" stroke-width="1.5" d="M536.5,-540C536.5,-540 348.5,-540 348.5,-540 342.5,-540 336.5,-534 336.5,-528 336.5,-528 336.5,-498 336.5,-498 336.5,-492 342.5,-486 348.5,-486 348.5,-486 536.5,-486 536.5,-486 542.5,-486 548.5,-492 548.5,-498 548.5,-498 548.5,-528 548.5,-528 548.5,-534 542.5,-540 536.5,-540"/>
<text text-anchor="middle" x="442.5" y="-522.2" font-family="Helvetica,sans-Serif" font-size="11.00" fill="#6d28d9">Assess Response</text>
<text text-anchor="middle" x="442.5" y="-510.2" font-family="Helvetica,sans-Serif" font-size="11.00" fill="#6d28d9">iwCLL criteria · CT scan · MRD</text>
<text text-anchor="middle" x="442.5" y="-498.2" font-family="Helvetica,sans-Serif" font-size="11.00" fill="#6d28d9">(MRD at end of fixed&#45;duration Rx)</text>
</g>
<!-- TP53_TX&#45;&gt;RESPONSE -->
<g id="edge12" class="edge">
<title>TP53_TX&#45;&gt;RESPONSE</title>
<path fill="none" stroke="black" stroke-width="1.3" d="M260.53,-592.85C296.97,-577.06 338.61,-559.02 372.86,-544.18"/>
<polygon fill="black" stroke="black" stroke-width="1.3" points="374.53,-547.27 382.31,-540.08 371.75,-540.85 374.53,-547.27"/>
</g>
<!-- FIT_TX -->
<g id="node9" class="node">
<title>FIT_TX</title>
<path fill="#d1fae5" stroke="black" stroke-width="1.5" d="M558,-683C558,-683 327,-683 327,-683 321,-683 315,-677 315,-671 315,-671 315,-593 315,-593 315,-587 321,-581 327,-581 327,-581 558,-581 558,-581 564,-581 570,-587 570,-593 570,-593 570,-671 570,-671 570,-677 564,-683 558,-683"/>
<text text-anchor="middle" x="442.5" y="-665.2" font-family="Helvetica,sans-Serif" font-size="11.00" fill="#065f46">Fit (CIRS ≤6, eGFR ≥70, ECOG 0–1)</text>
<text text-anchor="middle" x="442.5" y="-653.2" font-family="Helvetica,sans-Serif" font-size="11.00" fill="#065f46">First&#45;Line Options</text>
<text text-anchor="middle" x="442.5" y="-641.2" font-family="Helvetica,sans-Serif" font-size="11.00" fill="#065f46">─────────────────────────</text>
<text text-anchor="middle" x="442.5" y="-629.2" font-family="Helvetica,sans-Serif" font-size="11.00" fill="#065f46">Acalabrutinib ± Obi &#160;[TA795] &#160;← preferred</text>
<text text-anchor="middle" x="442.5" y="-617.2" font-family="Helvetica,sans-Serif" font-size="11.00" fill="#065f46">Venetoclax + Obi 12cx &#160;[TA663]</text>
<text text-anchor="middle" x="442.5" y="-605.2" font-family="Helvetica,sans-Serif" font-size="11.00" fill="#065f46">Ibrutinib + Venetoclax 12cx &#160;[TA891]</text>
<text text-anchor="middle" x="442.5" y="-593.2" font-family="Helvetica,sans-Serif" font-size="11.00" fill="#065f46">Ibrutinib 420 mg OD &#160;[TA429]</text>
</g>
<!-- DEC_FIT&#45;&gt;FIT_TX -->
<g id="edge8" class="edge">
<title>DEC_FIT&#45;&gt;FIT_TX</title>
<path fill="none" stroke="black" stroke-width="1.3" d="M469.68,-735.12C466.24,-722.18 462.27,-707.29 458.46,-692.95"/>
<polygon fill="black" stroke="black" stroke-width="1.3" points="461.8,-691.91 455.85,-683.14 455.04,-693.71 461.8,-691.91"/>
<text text-anchor="middle" x="468.5" y="-705.4" font-family="Helvetica,sans-Serif" font-size="9.50">Fit</text>
</g>
<!-- UNFIT_TX -->
<g id="node10" class="node">
<title>UNFIT_TX</title>
<path fill="#eff6ff" stroke="black" stroke-width="1.5" d="M807,-677C807,-677 618,-677 618,-677 612,-677 606,-671 606,-665 606,-665 606,-599 606,-599 606,-593 612,-587 618,-587 618,-587 807,-587 807,-587 813,-587 819,-593 819,-599 819,-599 819,-665 819,-665 819,-671 813,-677 807,-677"/>
<text text-anchor="middle" x="712.5" y="-659.2" font-family="Helvetica,sans-Serif" font-size="11.00" fill="#1e3a5f">Unfit / Elderly</text>
<text text-anchor="middle" x="712.5" y="-647.2" font-family="Helvetica,sans-Serif" font-size="11.00" fill="#1e3a5f">First&#45;Line Options</text>
<text text-anchor="middle" x="712.5" y="-635.2" font-family="Helvetica,sans-Serif" font-size="11.00" fill="#1e3a5f">─────────────────────────</text>
<text text-anchor="middle" x="712.5" y="-623.2" font-family="Helvetica,sans-Serif" font-size="11.00" fill="#1e3a5f">Acalabrutinib 100 mg BD &#160;[TA795]</text>
<text text-anchor="middle" x="712.5" y="-611.2" font-family="Helvetica,sans-Serif" font-size="11.00" fill="#1e3a5f">Venetoclax + Obi 12cx &#160;[TA663]</text>
<text text-anchor="middle" x="712.5" y="-599.2" font-family="Helvetica,sans-Serif" font-size="11.00" fill="#1e3a5f">Ibrutinib 420 mg OD &#160;[TA429]</text>
</g>
<!-- DEC_FIT&#45;&gt;UNFIT_TX -->
<g id="edge9" class="edge">
<title>DEC_FIT&#45;&gt;UNFIT_TX</title>
<path fill="none" stroke="black" stroke-width="1.3" d="M526.37,-744.04C556.02,-726.35 595.17,-703 629.91,-682.27"/>
<polygon fill="black" stroke="black" stroke-width="1.3" points="631.84,-685.19 638.64,-677.06 628.26,-679.18 631.84,-685.19"/>
<text text-anchor="middle" x="600" y="-705.4" font-family="Helvetica,sans-Serif" font-size="9.50">Unfit</text>
</g>
<!-- FIT_TX&#45;&gt;RESPONSE -->
<g id="edge10" class="edge">
<title>FIT_TX&#45;&gt;RESPONSE</title>
<path fill="none" stroke="black" stroke-width="1.3" d="M442.5,-580.7C442.5,-570.42 442.5,-559.8 442.5,-550.13"/>
<polygon fill="black" stroke="black" stroke-width="1.3" points="446,-550.08 442.5,-540.08 439,-550.08 446,-550.08"/>
</g>
<!-- UNFIT_TX&#45;&gt;RESPONSE -->
<g id="edge11" class="edge">
<title>UNFIT_TX&#45;&gt;RESPONSE</title>
<path fill="none" stroke="black" stroke-width="1.3" d="M610.81,-586.93C577.9,-572.67 542.17,-557.19 512.13,-544.17"/>
<polygon fill="black" stroke="black" stroke-width="1.3" points="513.15,-540.8 502.59,-540.04 510.37,-547.23 513.15,-540.8"/>
</g>
<!-- DEC_PROG -->
<g id="node12" class="node">
<title>DEC_PROG</title>
<path fill="#fef3c7" stroke="black" stroke-width="1.5" d="M431.13,-441.18C431.13,-441.18 334.87,-408.82 334.87,-408.82 329.19,-406.91 329.19,-403.09 334.87,-401.18 334.87,-401.18 431.13,-368.82 431.13,-368.82 436.81,-366.91 448.19,-366.91 453.87,-368.82 453.87,-368.82 550.13,-401.18 550.13,-401.18 555.81,-403.09 555.81,-406.91 550.13,-408.82 550.13,-408.82 453.87,-441.18 453.87,-441.18 448.19,-443.09 436.81,-443.09 431.13,-441.18"/>
<text text-anchor="middle" x="442.5" y="-408" font-family="Helvetica,sans-Serif" font-size="10.00" fill="#78350f">Progressive</text>
<text text-anchor="middle" x="442.5" y="-397" font-family="Helvetica,sans-Serif" font-size="10.00" fill="#78350f">Disease / Relapse?</text>
</g>
<!-- RESPONSE&#45;&gt;DEC_PROG -->
<g id="edge13" class="edge">
<title>RESPONSE&#45;&gt;DEC_PROG</title>
<path fill="none" stroke="black" stroke-width="1.3" d="M442.5,-485.8C442.5,-476.51 442.5,-465.72 442.5,-455.15"/>
<polygon fill="black" stroke="black" stroke-width="1.3" points="446,-455.12 442.5,-445.12 439,-455.12 446,-455.12"/>
</g>
<!-- CONTINUE -->
<g id="node13" class="node">
<title>CONTINUE</title>
<path fill="#f0fdf4" stroke="black" stroke-width="1.5" d="M518,-315C518,-315 311,-315 311,-315 305,-315 299,-309 299,-303 299,-303 299,-273 299,-273 299,-267 305,-261 311,-261 311,-261 518,-261 518,-261 524,-261 530,-267 530,-273 530,-273 530,-303 530,-303 530,-309 524,-315 518,-315"/>
<text text-anchor="middle" x="414.5" y="-297.2" font-family="Helvetica,sans-Serif" font-size="11.00" fill="#166534">Continue / Observe</text>
<text text-anchor="middle" x="414.5" y="-285.2" font-family="Helvetica,sans-Serif" font-size="11.00" fill="#166534">(Fixed&#45;duration: stop; BTKi: continue)</text>
<text text-anchor="middle" x="414.5" y="-273.2" font-family="Helvetica,sans-Serif" font-size="11.00" fill="#166534">Review 3–6 monthly</text>
</g>
<!-- DEC_PROG&#45;&gt;CONTINUE -->
<g id="edge14" class="edge">
<title>DEC_PROG&#45;&gt;CONTINUE</title>
<path fill="none" stroke="black" stroke-width="1.3" d="M433.72,-367.93C430.39,-354.28 426.61,-338.75 423.29,-325.1"/>
<polygon fill="black" stroke="black" stroke-width="1.3" points="426.62,-323.98 420.85,-315.09 419.82,-325.64 426.62,-323.98"/>
<text text-anchor="middle" x="435" y="-337.4" font-family="Helvetica,sans-Serif" font-size="9.50">NO</text>
</g>
<!-- RELAPSE -->
<g id="node14" class="node">
<title>RELAPSE</title>
<path fill="#fef3c7" stroke="black" stroke-width="1.5" d="M797,-315C797,-315 578,-315 578,-315 572,-315 566,-309 566,-303 566,-303 566,-273 566,-273 566,-267 572,-261 578,-261 578,-261 797,-261 797,-261 803,-261 809,-267 809,-273 809,-273 809,-303 809,-303 809,-309 803,-315 797,-315"/>
<text text-anchor="middle" x="687.5" y="-297.2" font-family="Helvetica,sans-Serif" font-size="11.00" fill="#78350f">R/R Evaluation</text>
<text text-anchor="middle" x="687.5" y="-285.2" font-family="Helvetica,sans-Serif" font-size="11.00" fill="#78350f">Repeat TP53 + FISH · Clonal evolution?</text>
<text text-anchor="middle" x="687.5" y="-273.2" font-family="Helvetica,sans-Serif" font-size="11.00" fill="#78350f">Suspect Richter&#39;s if LDH↑ + rapid LAP</text>
</g>
<!-- DEC_PROG&#45;&gt;RELAPSE -->
<g id="edge15" class="edge">
<title>DEC_PROG&#45;&gt;RELAPSE</title>
<path fill="none" stroke="black" stroke-width="1.3" d="M491.2,-381.14C528.95,-363.42 581.61,-338.7 622.89,-319.33"/>
<polygon fill="black" stroke="black" stroke-width="1.3" points="624.48,-322.45 632.05,-315.03 621.51,-316.11 624.48,-322.45"/>
<text text-anchor="middle" x="596" y="-337.4" font-family="Helvetica,sans-Serif" font-size="9.50">YES</text>
</g>
<!-- DEC_RICHTER -->
<g id="node15" class="node">
<title>DEC_RICHTER</title>
<path fill="#fee2e2" stroke="black" stroke-width="1.5" d="M676.29,-215.73C676.29,-215.73 593.71,-184.27 593.71,-184.27 588.11,-182.14 588.11,-177.86 593.71,-175.73 593.71,-175.73 676.29,-144.27 676.29,-144.27 681.89,-142.14 693.11,-142.14 698.71,-144.27 698.71,-144.27 781.29,-175.73 781.29,-175.73 786.89,-177.86 786.89,-182.14 781.29,-184.27 781.29,-184.27 698.71,-215.73 698.71,-215.73 693.11,-217.86 681.89,-217.86 676.29,-215.73"/>
<text text-anchor="middle" x="687.5" y="-183" font-family="Helvetica,sans-Serif" font-size="10.00" fill="#991b1b">Richter&#39;s</text>
<text text-anchor="middle" x="687.5" y="-172" font-family="Helvetica,sans-Serif" font-size="10.00" fill="#991b1b">Transformation?</text>
</g>
<!-- RELAPSE&#45;&gt;DEC_RICHTER -->
<g id="edge16" class="edge">
<title>RELAPSE&#45;&gt;DEC_RICHTER</title>
<path fill="none" stroke="black" stroke-width="1.3" d="M687.5,-260.8C687.5,-251.51 687.5,-240.72 687.5,-230.15"/>
<polygon fill="black" stroke="black" stroke-width="1.3" points="691,-230.12 687.5,-220.12 684,-230.12 691,-230.12"/>
</g>
<!-- RICHTER -->
<g id="node16" class="node">
<title>RICHTER</title>
<path fill="#fee2e2" stroke="black" stroke-width="1.5" d="M648.5,-90C648.5,-90 452.5,-90 452.5,-90 446.5,-90 440.5,-84 440.5,-78 440.5,-78 440.5,-12 440.5,-12 440.5,-6 446.5,0 452.5,0 452.5,0 648.5,0 648.5,0 654.5,0 660.5,-6 660.5,-12 660.5,-12 660.5,-78 660.5,-78 660.5,-84 654.5,-90 648.5,-90"/>
<text text-anchor="middle" x="550.5" y="-72.2" font-family="Helvetica,sans-Serif" font-size="11.00" fill="#991b1b">Richter&#39;s Transformation</text>
<text text-anchor="middle" x="550.5" y="-60.2" font-family="Helvetica,sans-Serif" font-size="11.00" fill="#991b1b">PET&#45;CT + biopsy of most avid node</text>
<text text-anchor="middle" x="550.5" y="-48.2" font-family="Helvetica,sans-Serif" font-size="11.00" fill="#991b1b">──────────────────────</text>
<text text-anchor="middle" x="550.5" y="-36.2" font-family="Helvetica,sans-Serif" font-size="11.00" fill="#991b1b">Clinical trial (preferred)</text>
<text text-anchor="middle" x="550.5" y="-24.2" font-family="Helvetica,sans-Serif" font-size="11.00" fill="#991b1b">R&#45;CHOP if no trial</text>
<text text-anchor="middle" x="550.5" y="-12.2" font-family="Helvetica,sans-Serif" font-size="11.00" fill="#991b1b">CAR&#45;T / Bispecific (ORR 60–65%)</text>
</g>
<!-- DEC_RICHTER&#45;&gt;RICHTER -->
<g id="edge17" class="edge">
<title>DEC_RICHTER&#45;&gt;RICHTER</title>
<path fill="none" stroke="black" stroke-width="1.3" d="M658.45,-150.79C642.43,-135.24 622.05,-115.46 603.32,-97.27"/>
<polygon fill="black" stroke="black" stroke-width="1.3" points="605.57,-94.59 595.96,-90.13 600.7,-99.61 605.57,-94.59"/>
<text text-anchor="middle" x="669" y="-112.4" font-family="Helvetica,sans-Serif" font-size="9.50">YES (PET + biopsy)</text>
</g>
<!-- RR_TX -->
<g id="node17" class="node">
<title>RR_TX</title>
<path fill="#eff6ff" stroke="black" stroke-width="1.5" d="M942.5,-90C942.5,-90 708.5,-90 708.5,-90 702.5,-90 696.5,-84 696.5,-78 696.5,-78 696.5,-12 696.5,-12 696.5,-6 702.5,0 708.5,0 708.5,0 942.5,0 942.5,0 948.5,0 954.5,-6 954.5,-12 954.5,-12 954.5,-78 954.5,-78 954.5,-84 948.5,-90 942.5,-90"/>
<text text-anchor="middle" x="825.5" y="-72.2" font-family="Helvetica,sans-Serif" font-size="11.00" fill="#1e3a5f">R/R CLL Treatment</text>
<text text-anchor="middle" x="825.5" y="-60.2" font-family="Helvetica,sans-Serif" font-size="11.00" fill="#1e3a5f">─────────────────────────</text>
<text text-anchor="middle" x="825.5" y="-48.2" font-family="Helvetica,sans-Serif" font-size="11.00" fill="#1e3a5f">Venetoclax + Rituximab &#160;[TA689]</text>
<text text-anchor="middle" x="825.5" y="-36.2" font-family="Helvetica,sans-Serif" font-size="11.00" fill="#1e3a5f">Venetoclax monotherapy &#160;[TA796]</text>
<text text-anchor="middle" x="825.5" y="-24.2" font-family="Helvetica,sans-Serif" font-size="11.00" fill="#1e3a5f">Alternate BTKi (if BTKi&#45;naive)</text>
<text text-anchor="middle" x="825.5" y="-12.2" font-family="Helvetica,sans-Serif" font-size="11.00" fill="#1e3a5f">Pirtobrutinib (BTKi&#45;refractory — check TA)</text>
</g>
<!-- DEC_RICHTER&#45;&gt;RR_TX -->
<g id="edge18" class="edge">
<title>DEC_RICHTER&#45;&gt;RR_TX</title>
<path fill="none" stroke="black" stroke-width="1.3" d="M716.77,-150.79C732.9,-135.24 753.43,-115.46 772.3,-97.27"/>
<polygon fill="black" stroke="black" stroke-width="1.3" points="774.94,-99.59 779.71,-90.13 770.08,-94.55 774.94,-99.59"/>
<text text-anchor="middle" x="764" y="-112.4" font-family="Helvetica,sans-Serif" font-size="9.50">NO</text>
</g>
</g>
</svg>
