<?xml version="1.0" encoding="UTF-8" standalone="no"?>
<!DOCTYPE svg PUBLIC "-//W3C//DTD SVG 1.1//EN"
 "http://www.w3.org/Graphics/SVG/1.1/DTD/svg11.dtd">
<!-- Generated by graphviz version 2.43.0 (0)
 -->
<!-- Title: CLL_Algorithm Pages: 1 -->
<svg width="1286pt" height="1542pt"
 viewBox="0.00 0.00 1285.50 1542.37" xmlns="http://www.w3.org/2000/svg" xmlns:xlink="http://www.w3.org/1999/xlink">
<g id="graph0" class="graph" transform="scale(1 1) rotate(0) translate(36 1506.37)">
<title>CLL_Algorithm</title>
<polygon fill="white" stroke="transparent" points="-36,36 -36,-1506.37 1249.5,-1506.37 1249.5,36 -36,36"/>
<text text-anchor="middle" x="606.75" y="-16.8" font-family="Helvetica,sans-Serif" font-size="9.00" fill="#6b7280">CLL Treatment Decision Algorithm — BSH 2025 / NICE v1.9</text>
<text text-anchor="middle" x="606.75" y="-6.8" font-family="Helvetica,sans-Serif" font-size="9.00" fill="#6b7280">Mohsin Haematology Academy · mohsinhaemacademy.com</text>
<!-- START -->
<g id="node1" class="node">
<title>START</title>
<ellipse fill="#1e3a5f" stroke="black" stroke-width="1.5" cx="267.5" cy="-1432.18" rx="158.28" ry="38.37"/>
<text text-anchor="middle" x="267.5" y="-1441.38" font-family="Helvetica,sans-Serif" font-size="11.00" fill="white">CLL Confirmed</text>
<text text-anchor="middle" x="267.5" y="-1429.38" font-family="Helvetica,sans-Serif" font-size="11.00" fill="white">Flow cytometry · Matutes score ≥4</text>
<text text-anchor="middle" x="267.5" y="-1417.38" font-family="Helvetica,sans-Serif" font-size="11.00" fill="white">Distinguish from MBL (&lt;5×10⁹/L)</text>
</g>
<!-- WORKUP -->
<g id="node2" class="node">
<title>WORKUP</title>
<path fill="#eff6ff" stroke="black" stroke-width="1.5" d="M392,-1349C392,-1349 143,-1349 143,-1349 137,-1349 131,-1343 131,-1337 131,-1337 131,-1288 131,-1288 131,-1282 137,-1276 143,-1276 143,-1276 392,-1276 392,-1276 398,-1276 404,-1282 404,-1288 404,-1288 404,-1337 404,-1337 404,-1343 398,-1349 392,-1349"/>
<text text-anchor="middle" x="267.5" y="-1332" font-family="Helvetica,sans-Serif" font-size="10.00" fill="#1e3a5f">Prognostic Work&#45;up (mandatory before treatment)</text>
<text text-anchor="middle" x="267.5" y="-1321" font-family="Helvetica,sans-Serif" font-size="10.00" fill="#1e3a5f">FISH: del(17p), del(11q), trisomy 12, del(13q)</text>
<text text-anchor="middle" x="267.5" y="-1310" font-family="Helvetica,sans-Serif" font-size="10.00" fill="#1e3a5f">TP53 sequencing (always alongside FISH)</text>
<text text-anchor="middle" x="267.5" y="-1299" font-family="Helvetica,sans-Serif" font-size="10.00" fill="#1e3a5f">IGHV mutation status · Karyotype</text>
<text text-anchor="middle" x="267.5" y="-1288" font-family="Helvetica,sans-Serif" font-size="10.00" fill="#1e3a5f">Virology (HIV, HBV, HCV, CMV) · DAT</text>
</g>
<!-- START&#45;&gt;WORKUP -->
<g id="edge1" class="edge">
<title>START&#45;&gt;WORKUP</title>
<path fill="none" stroke="black" stroke-width="1.3" d="M267.5,-1393.95C267.5,-1383.02 267.5,-1370.93 267.5,-1359.52"/>
<polygon fill="black" stroke="black" stroke-width="1.3" points="271,-1359.29 267.5,-1349.29 264,-1359.29 271,-1359.29"/>
</g>
<!-- DEC_IWCLL -->
<g id="node3" class="node">
<title>DEC_IWCLL</title>
<path fill="#fef3c7" stroke="black" stroke-width="1.5" d="M256.67,-1225.84C256.67,-1225.84 171.33,-1185.16 171.33,-1185.16 165.92,-1182.58 165.92,-1177.42 171.33,-1174.84 171.33,-1174.84 256.67,-1134.16 256.67,-1134.16 262.08,-1131.58 272.92,-1131.58 278.33,-1134.16 278.33,-1134.16 363.67,-1174.84 363.67,-1174.84 369.08,-1177.42 369.08,-1182.58 363.67,-1185.16 363.67,-1185.16 278.33,-1225.84 278.33,-1225.84 272.92,-1228.42 262.08,-1228.42 256.67,-1225.84"/>
<text text-anchor="middle" x="267.5" y="-1188.5" font-family="Helvetica,sans-Serif" font-size="10.00" fill="#78350f">iwCLL Active</text>
<text text-anchor="middle" x="267.5" y="-1177.5" font-family="Helvetica,sans-Serif" font-size="10.00" fill="#78350f">Disease Criteria</text>
<text text-anchor="middle" x="267.5" y="-1166.5" font-family="Helvetica,sans-Serif" font-size="10.00" fill="#78350f">Met?</text>
</g>
<!-- WORKUP&#45;&gt;DEC_IWCLL -->
<g id="edge2" class="edge">
<title>WORKUP&#45;&gt;DEC_IWCLL</title>
<path fill="none" stroke="black" stroke-width="1.3" d="M267.5,-1275.84C267.5,-1265.22 267.5,-1253.27 267.5,-1241.52"/>
<polygon fill="black" stroke="black" stroke-width="1.3" points="271,-1241.29 267.5,-1231.29 264,-1241.29 271,-1241.29"/>
</g>
<!-- WATCHANDWAIT -->
<g id="node4" class="node">
<title>WATCHANDWAIT</title>
<path fill="#f0fdf4" stroke="black" stroke-width="1.5" d="M265,-1046C265,-1046 12,-1046 12,-1046 6,-1046 0,-1040 0,-1034 0,-1034 0,-996 0,-996 0,-990 6,-984 12,-984 12,-984 265,-984 265,-984 271,-984 277,-990 277,-996 277,-996 277,-1034 277,-1034 277,-1040 271,-1046 265,-1046"/>
<text text-anchor="middle" x="138.5" y="-1029" font-family="Helvetica,sans-Serif" font-size="10.00" fill="#166534">WATCH AND WAIT</text>
<text text-anchor="middle" x="138.5" y="-1018" font-family="Helvetica,sans-Serif" font-size="10.00" fill="#166534">Clinical review 3–6 monthly</text>
<text text-anchor="middle" x="138.5" y="-1007" font-family="Helvetica,sans-Serif" font-size="10.00" fill="#166534">Repeat prognostic panel before treatment decision</text>
<text text-anchor="middle" x="138.5" y="-996" font-family="Helvetica,sans-Serif" font-size="10.00" fill="#166534">Workup not required at diagnosis if asymptomatic</text>
</g>
<!-- DEC_IWCLL&#45;&gt;WATCHANDWAIT -->
<g id="edge3" class="edge">
<title>DEC_IWCLL&#45;&gt;WATCHANDWAIT</title>
<path fill="none" stroke="black" stroke-width="1.3" d="M215.92,-1153.21C174.6,-1132.55 123.5,-1107 123.5,-1107 123.5,-1107 123.5,-1077 123.5,-1077 123.5,-1077 125.82,-1067.55 128.64,-1056.08"/>
<polygon fill="black" stroke="black" stroke-width="1.3" points="132.1,-1056.69 131.09,-1046.14 125.3,-1055.02 132.1,-1056.69"/>
<text text-anchor="middle" x="170.5" y="-1094.8" font-family="Helvetica,sans-Serif" font-size="9.00">NO — asymptomatic</text>
<text text-anchor="middle" x="170.5" y="-1084.8" font-family="Helvetica,sans-Serif" font-size="9.00">or no criteria met</text>
</g>
<!-- DEC_TP53 -->
<g id="node5" class="node">
<title>DEC_TP53</title>
<path fill="#fef3c7" stroke="black" stroke-width="1.5" d="M419.3,-1050.69C419.3,-1050.69 337.7,-1019.31 337.7,-1019.31 332.1,-1017.15 332.1,-1012.85 337.7,-1010.69 337.7,-1010.69 419.3,-979.31 419.3,-979.31 424.9,-977.15 436.1,-977.15 441.7,-979.31 441.7,-979.31 523.3,-1010.69 523.3,-1010.69 528.9,-1012.85 528.9,-1017.15 523.3,-1019.31 523.3,-1019.31 441.7,-1050.69 441.7,-1050.69 436.1,-1052.85 424.9,-1052.85 419.3,-1050.69"/>
<text text-anchor="middle" x="430.5" y="-1018" font-family="Helvetica,sans-Serif" font-size="10.00" fill="#78350f">del(17p) and/or</text>
<text text-anchor="middle" x="430.5" y="-1007" font-family="Helvetica,sans-Serif" font-size="10.00" fill="#78350f">TP53 Mutation?</text>
</g>
<!-- DEC_IWCLL&#45;&gt;DEC_TP53 -->
<g id="edge4" class="edge">
<title>DEC_IWCLL&#45;&gt;DEC_TP53</title>
<path fill="none" stroke="black" stroke-width="1.3" d="M308.49,-1148.26C334.58,-1128.69 363.5,-1107 363.5,-1107 363.5,-1107 383.71,-1079.55 401.93,-1054.8"/>
<polygon fill="black" stroke="black" stroke-width="1.3" points="404.89,-1056.68 408,-1046.55 399.26,-1052.53 404.89,-1056.68"/>
<text text-anchor="middle" x="428" y="-1089.8" font-family="Helvetica,sans-Serif" font-size="9.00">YES — criteria met</text>
</g>
<!-- WATCHANDWAIT&#45;&gt;DEC_IWCLL -->
<g id="edge19" class="edge">
<title>WATCHANDWAIT&#45;&gt;DEC_IWCLL</title>
<path fill="none" stroke="#6b717a" stroke-width="1.3" stroke-dasharray="5,2" d="M180.5,-1046.14C201.92,-1061.51 223.5,-1077 223.5,-1077 223.5,-1077 234.54,-1102.6 245.56,-1128.15"/>
<polygon fill="#6b717a" stroke="#6b717a" stroke-width="1.3" points="242.43,-1129.72 249.6,-1137.51 248.86,-1126.94 242.43,-1129.72"/>
<text text-anchor="middle" x="294.5" y="-1099.8" font-family="Helvetica,sans-Serif" font-size="9.00">Reassess at each visit</text>
<text text-anchor="middle" x="294.5" y="-1089.8" font-family="Helvetica,sans-Serif" font-size="9.00">(workup before treatment</text>
<text text-anchor="middle" x="294.5" y="-1079.8" font-family="Helvetica,sans-Serif" font-size="9.00">decision only)</text>
</g>
<!-- TP53_BLOCK -->
<g id="node6" class="node">
<title>TP53_BLOCK</title>
<path fill="#fee2e2" stroke="black" stroke-width="1.5" d="M339.5,-901C339.5,-901 127.5,-901 127.5,-901 121.5,-901 115.5,-895 115.5,-889 115.5,-889 115.5,-851 115.5,-851 115.5,-845 121.5,-839 127.5,-839 127.5,-839 339.5,-839 339.5,-839 345.5,-839 351.5,-845 351.5,-851 351.5,-851 351.5,-889 351.5,-889 351.5,-895 345.5,-901 339.5,-901"/>
<text text-anchor="middle" x="233.5" y="-884" font-family="Helvetica,sans-Serif" font-size="10.00" fill="#991b1b">TP53&#45;Aberrant CLL</text>
<text text-anchor="middle" x="233.5" y="-873" font-family="Helvetica,sans-Serif" font-size="10.00" fill="#991b1b">Targeted agents only (BSH 2025 Grade 1A)</text>
<text text-anchor="middle" x="233.5" y="-862" font-family="Helvetica,sans-Serif" font-size="10.00" fill="#991b1b">DNA&#45;damaging cytotoxic regimens</text>
<text text-anchor="middle" x="233.5" y="-851" font-family="Helvetica,sans-Serif" font-size="10.00" fill="#991b1b">are not appropriate in this setting</text>
</g>
<!-- DEC_TP53&#45;&gt;TP53_BLOCK -->
<g id="edge5" class="edge">
<title>DEC_TP53&#45;&gt;TP53_BLOCK</title>
<path fill="none" stroke="black" stroke-width="1.3" d="M395.28,-988.43C364.03,-965.75 318.04,-932.37 283.08,-906.99"/>
<polygon fill="black" stroke="black" stroke-width="1.3" points="285.05,-904.09 274.9,-901.05 280.93,-909.76 285.05,-904.09"/>
<text text-anchor="middle" x="353.5" y="-945.8" font-family="Helvetica,sans-Serif" font-size="9.00">YES</text>
</g>
<!-- DEC_FIT -->
<g id="node8" class="node">
<title>DEC_FIT</title>
<path fill="#fef3c7" stroke="black" stroke-width="1.5" d="M564.01,-917.53C564.01,-917.53 417.99,-873.47 417.99,-873.47 412.24,-871.73 412.24,-868.27 417.99,-866.53 417.99,-866.53 564.01,-822.47 564.01,-822.47 569.76,-820.73 581.24,-820.73 586.99,-822.47 586.99,-822.47 733.01,-866.53 733.01,-866.53 738.76,-868.27 738.76,-871.73 733.01,-873.47 733.01,-873.47 586.99,-917.53 586.99,-917.53 581.24,-919.27 569.76,-919.27 564.01,-917.53"/>
<text text-anchor="middle" x="575.5" y="-878.5" font-family="Helvetica,sans-Serif" font-size="10.00" fill="#78350f">Fitness Assessment</text>
<text text-anchor="middle" x="575.5" y="-867.5" font-family="Helvetica,sans-Serif" font-size="10.00" fill="#78350f">CIRS · eGFR · ECOG · Cardiac</text>
<text text-anchor="middle" x="575.5" y="-856.5" font-family="Helvetica,sans-Serif" font-size="10.00" fill="#78350f">(prior AF / anticoagulation?)</text>
</g>
<!-- DEC_TP53&#45;&gt;DEC_FIT -->
<g id="edge7" class="edge">
<title>DEC_TP53&#45;&gt;DEC_FIT</title>
<path fill="none" stroke="black" stroke-width="1.3" d="M459.15,-985.75C479.11,-966.06 506.17,-939.38 529.17,-916.69"/>
<polygon fill="black" stroke="black" stroke-width="1.3" points="531.82,-918.99 536.48,-909.48 526.9,-914.01 531.82,-918.99"/>
<text text-anchor="middle" x="505.5" y="-945.8" font-family="Helvetica,sans-Serif" font-size="9.00">NO</text>
</g>
<!-- TP53_TX -->
<g id="node7" class="node">
<title>TP53_TX</title>
<path fill="#eff6ff" stroke="black" stroke-width="1.5" d="M339,-755C339,-755 34,-755 34,-755 28,-755 22,-749 22,-743 22,-743 22,-672 22,-672 22,-666 28,-660 34,-660 34,-660 339,-660 339,-660 345,-660 351,-666 351,-672 351,-672 351,-743 351,-743 351,-749 345,-755 339,-755"/>
<text text-anchor="middle" x="186.5" y="-738" font-family="Helvetica,sans-Serif" font-size="10.00" fill="#1e3a5f">First&#45;Line Options (TP53&#45;aberrant) — BSH 2025</text>
<text text-anchor="middle" x="186.5" y="-727" font-family="Helvetica,sans-Serif" font-size="10.00" fill="#1e3a5f">───────────────────────────────</text>
<text text-anchor="middle" x="186.5" y="-716" font-family="Helvetica,sans-Serif" font-size="10.00" fill="#1e3a5f">Zanubrutinib 160 mg BD &#160;[TA931] &#160;PREFERRED</text>
<text text-anchor="middle" x="186.5" y="-705" font-family="Helvetica,sans-Serif" font-size="10.00" fill="#1e3a5f">Acalabrutinib 100 mg BD &#160;[TA689 monotherapy] &#160;PREFERRED</text>
<text text-anchor="middle" x="186.5" y="-694" font-family="Helvetica,sans-Serif" font-size="10.00" fill="#1e3a5f">Venetoclax + Obinutuzumab 12 cycles &#160;[TA1119]</text>
<text text-anchor="middle" x="186.5" y="-683" font-family="Helvetica,sans-Serif" font-size="10.00" fill="#1e3a5f">Ibrutinib + Venetoclax 12 cycles &#160;[TA891] &#160;(limited TP53 data)</text>
<text text-anchor="middle" x="186.5" y="-672" font-family="Helvetica,sans-Serif" font-size="10.00" fill="#1e3a5f">Ibrutinib 420 mg OD &#160;[TA429] &#160;(de&#45;prioritised)</text>
</g>
<!-- TP53_BLOCK&#45;&gt;TP53_TX -->
<g id="edge6" class="edge">
<title>TP53_BLOCK&#45;&gt;TP53_TX</title>
<path fill="none" stroke="black" stroke-width="1.3" d="M224.66,-838.81C218.58,-818.05 210.32,-789.84 203.04,-764.98"/>
<polygon fill="black" stroke="black" stroke-width="1.3" points="206.37,-763.9 200.2,-755.28 199.65,-765.86 206.37,-763.9"/>
</g>
<!-- RESPONSE -->
<g id="node11" class="node">
<title>RESPONSE</title>
<path fill="#f5f3ff" stroke="black" stroke-width="1.5" d="M730.5,-615C730.5,-615 420.5,-615 420.5,-615 414.5,-615 408.5,-609 408.5,-603 408.5,-603 408.5,-565 408.5,-565 408.5,-559 414.5,-553 420.5,-553 420.5,-553 730.5,-553 730.5,-553 736.5,-553 742.5,-559 742.5,-565 742.5,-565 742.5,-603 742.5,-603 742.5,-609 736.5,-615 730.5,-615"/>
<text text-anchor="middle" x="575.5" y="-598" font-family="Helvetica,sans-Serif" font-size="10.00" fill="#6d28d9">Assess Response</text>
<text text-anchor="middle" x="575.5" y="-587" font-family="Helvetica,sans-Serif" font-size="10.00" fill="#6d28d9">iwCLL criteria · CT scan</text>
<text text-anchor="middle" x="575.5" y="-576" font-family="Helvetica,sans-Serif" font-size="10.00" fill="#6d28d9">uMRD4 (&lt;10⁻⁴) in fixed&#45;duration regimens</text>
<text text-anchor="middle" x="575.5" y="-565" font-family="Helvetica,sans-Serif" font-size="10.00" fill="#6d28d9">(MRD = additional assessment, not formal response category)</text>
</g>
<!-- TP53_TX&#45;&gt;RESPONSE -->
<g id="edge12" class="edge">
<title>TP53_TX&#45;&gt;RESPONSE</title>
<path fill="none" stroke="black" stroke-width="1.3" d="M335.51,-659.96C380.16,-646.01 428.2,-631.01 469.49,-618.11"/>
<polygon fill="black" stroke="black" stroke-width="1.3" points="470.78,-621.38 479.28,-615.05 468.69,-614.69 470.78,-621.38"/>
</g>
<!-- FIT_TX -->
<g id="node9" class="node">
<title>FIT_TX</title>
<path fill="#d1fae5" stroke="black" stroke-width="1.5" d="M747.5,-755C747.5,-755 403.5,-755 403.5,-755 397.5,-755 391.5,-749 391.5,-743 391.5,-743 391.5,-672 391.5,-672 391.5,-666 397.5,-660 403.5,-660 403.5,-660 747.5,-660 747.5,-660 753.5,-660 759.5,-666 759.5,-672 759.5,-672 759.5,-743 759.5,-743 759.5,-749 753.5,-755 747.5,-755"/>
<text text-anchor="middle" x="575.5" y="-738" font-family="Helvetica,sans-Serif" font-size="10.00" fill="#065f46">BSH 2025 Preferred Order — All Fitness Levels</text>
<text text-anchor="middle" x="575.5" y="-727" font-family="Helvetica,sans-Serif" font-size="10.00" fill="#065f46">───────────────────────────────</text>
<text text-anchor="middle" x="575.5" y="-716" font-family="Helvetica,sans-Serif" font-size="10.00" fill="#065f46">Zanubrutinib 160 mg BD &#160;[TA931] &#160;PREFERRED (AF ~2%)</text>
<text text-anchor="middle" x="575.5" y="-705" font-family="Helvetica,sans-Serif" font-size="10.00" fill="#065f46">Acalabrutinib 100 mg BD &#160;[TA689 monotherapy] &#160;PREFERRED (AF 6%)</text>
<text text-anchor="middle" x="575.5" y="-694" font-family="Helvetica,sans-Serif" font-size="10.00" fill="#065f46">Venetoclax + Obinutuzumab 12 cycles &#160;[TA1119] &#160;fixed&#45;duration</text>
<text text-anchor="middle" x="575.5" y="-683" font-family="Helvetica,sans-Serif" font-size="10.00" fill="#065f46">Ibrutinib + Venetoclax 12 cycles &#160;[TA891]</text>
<text text-anchor="middle" x="575.5" y="-672" font-family="Helvetica,sans-Serif" font-size="10.00" fill="#065f46">Ibrutinib 420 mg OD &#160;[TA429] &#160;(de&#45;prioritised for new starts)</text>
</g>
<!-- DEC_FIT&#45;&gt;FIT_TX -->
<g id="edge8" class="edge">
<title>DEC_FIT&#45;&gt;FIT_TX</title>
<path fill="none" stroke="black" stroke-width="1.3" d="M575.5,-818.66C575.5,-801.67 575.5,-782.6 575.5,-765.17"/>
<polygon fill="black" stroke="black" stroke-width="1.3" points="579,-765.11 575.5,-755.11 572,-765.11 579,-765.11"/>
<text text-anchor="middle" x="624" y="-789.8" font-family="Helvetica,sans-Serif" font-size="9.00">Fit</text>
<text text-anchor="middle" x="624" y="-779.8" font-family="Helvetica,sans-Serif" font-size="9.00">(CIRS ≤6, eGFR ≥70)</text>
</g>
<!-- UNFIT_TX -->
<g id="node10" class="node">
<title>UNFIT_TX</title>
<path fill="#eff6ff" stroke="black" stroke-width="1.5" d="M1113.5,-749.5C1113.5,-749.5 811.5,-749.5 811.5,-749.5 805.5,-749.5 799.5,-743.5 799.5,-737.5 799.5,-737.5 799.5,-677.5 799.5,-677.5 799.5,-671.5 805.5,-665.5 811.5,-665.5 811.5,-665.5 1113.5,-665.5 1113.5,-665.5 1119.5,-665.5 1125.5,-671.5 1125.5,-677.5 1125.5,-677.5 1125.5,-737.5 1125.5,-737.5 1125.5,-743.5 1119.5,-749.5 1113.5,-749.5"/>
<text text-anchor="middle" x="962.5" y="-732.5" font-family="Helvetica,sans-Serif" font-size="10.00" fill="#1e3a5f">Unfit / Elderly / High Comorbidity</text>
<text text-anchor="middle" x="962.5" y="-721.5" font-family="Helvetica,sans-Serif" font-size="10.00" fill="#1e3a5f">───────────────────────────────</text>
<text text-anchor="middle" x="962.5" y="-710.5" font-family="Helvetica,sans-Serif" font-size="10.00" fill="#1e3a5f">Zanubrutinib 160 mg BD &#160;[TA931] &#160;PREFERRED</text>
<text text-anchor="middle" x="962.5" y="-699.5" font-family="Helvetica,sans-Serif" font-size="10.00" fill="#1e3a5f">Acalabrutinib 100 mg BD &#160;[TA689 monotherapy] &#160;PREFERRED</text>
<text text-anchor="middle" x="962.5" y="-688.5" font-family="Helvetica,sans-Serif" font-size="10.00" fill="#1e3a5f">Venetoclax + Obinutuzumab 12 cycles &#160;[TA1119]</text>
<text text-anchor="middle" x="962.5" y="-677.5" font-family="Helvetica,sans-Serif" font-size="10.00" fill="#1e3a5f">Ibrutinib 420 mg OD &#160;[TA429] &#160;(de&#45;prioritised)</text>
</g>
<!-- DEC_FIT&#45;&gt;UNFIT_TX -->
<g id="edge9" class="edge">
<title>DEC_FIT&#45;&gt;UNFIT_TX</title>
<path fill="none" stroke="black" stroke-width="1.3" d="M645.58,-839.93C703.73,-815.82 787.39,-781.12 854.16,-753.43"/>
<polygon fill="black" stroke="black" stroke-width="1.3" points="855.56,-756.64 863.46,-749.57 852.88,-750.17 855.56,-756.64"/>
<text text-anchor="middle" x="823" y="-784.8" font-family="Helvetica,sans-Serif" font-size="9.00">Unfit / Elderly</text>
</g>
<!-- FIT_TX&#45;&gt;RESPONSE -->
<g id="edge10" class="edge">
<title>FIT_TX&#45;&gt;RESPONSE</title>
<path fill="none" stroke="black" stroke-width="1.3" d="M575.5,-659.87C575.5,-648.51 575.5,-636.46 575.5,-625.41"/>
<polygon fill="black" stroke="black" stroke-width="1.3" points="579,-625.19 575.5,-615.19 572,-625.19 579,-625.19"/>
</g>
<!-- UNFIT_TX&#45;&gt;RESPONSE -->
<g id="edge11" class="edge">
<title>UNFIT_TX&#45;&gt;RESPONSE</title>
<path fill="none" stroke="black" stroke-width="1.3" d="M831.75,-665.45C782.7,-650.05 727.62,-632.76 681.13,-618.16"/>
<polygon fill="black" stroke="black" stroke-width="1.3" points="681.94,-614.75 671.35,-615.09 679.84,-621.43 681.94,-614.75"/>
</g>
<!-- DEC_PROG -->
<g id="node12" class="node">
<title>DEC_PROG</title>
<path fill="#fef3c7" stroke="black" stroke-width="1.5" d="M564.11,-504.23C564.11,-504.23 465.89,-471.77 465.89,-471.77 460.2,-469.88 460.2,-466.12 465.89,-464.23 465.89,-464.23 564.11,-431.77 564.11,-431.77 569.8,-429.88 581.2,-429.88 586.89,-431.77 586.89,-431.77 685.11,-464.23 685.11,-464.23 690.8,-466.12 690.8,-469.88 685.11,-471.77 685.11,-471.77 586.89,-504.23 586.89,-504.23 581.2,-506.12 569.8,-506.12 564.11,-504.23"/>
<text text-anchor="middle" x="575.5" y="-471" font-family="Helvetica,sans-Serif" font-size="10.00" fill="#78350f">Progressive</text>
<text text-anchor="middle" x="575.5" y="-460" font-family="Helvetica,sans-Serif" font-size="10.00" fill="#78350f">Disease / Relapse?</text>
</g>
<!-- RESPONSE&#45;&gt;DEC_PROG -->
<g id="edge13" class="edge">
<title>RESPONSE&#45;&gt;DEC_PROG</title>
<path fill="none" stroke="black" stroke-width="1.3" d="M575.5,-552.75C575.5,-542.14 575.5,-529.93 575.5,-518.17"/>
<polygon fill="black" stroke="black" stroke-width="1.3" points="579,-518 575.5,-508 572,-518 579,-518"/>
</g>
<!-- CONTINUE -->
<g id="node13" class="node">
<title>CONTINUE</title>
<path fill="#f0fdf4" stroke="black" stroke-width="1.5" d="M666,-364C666,-364 371,-364 371,-364 365,-364 359,-358 359,-352 359,-352 359,-314 359,-314 359,-308 365,-302 371,-302 371,-302 666,-302 666,-302 672,-302 678,-308 678,-314 678,-314 678,-352 678,-352 678,-358 672,-364 666,-364"/>
<text text-anchor="middle" x="518.5" y="-347" font-family="Helvetica,sans-Serif" font-size="10.00" fill="#166534">Continue or Observe</text>
<text text-anchor="middle" x="518.5" y="-336" font-family="Helvetica,sans-Serif" font-size="10.00" fill="#166534">BTKi: continue until progression/intolerance</text>
<text text-anchor="middle" x="518.5" y="-325" font-family="Helvetica,sans-Serif" font-size="10.00" fill="#166534">Fixed&#45;duration (Ven&#45;Obi, Ibr+Ven): stop; monitor for relapse</text>
<text text-anchor="middle" x="518.5" y="-314" font-family="Helvetica,sans-Serif" font-size="10.00" fill="#166534">Review 3–6 monthly</text>
</g>
<!-- DEC_PROG&#45;&gt;CONTINUE -->
<g id="edge14" class="edge">
<title>DEC_PROG&#45;&gt;CONTINUE</title>
<path fill="none" stroke="black" stroke-width="1.3" d="M560.82,-432.75C553.03,-414.58 543.43,-392.16 535.34,-373.29"/>
<polygon fill="black" stroke="black" stroke-width="1.3" points="538.54,-371.87 531.38,-364.06 532.11,-374.63 538.54,-371.87"/>
<text text-anchor="middle" x="583.5" y="-398.8" font-family="Helvetica,sans-Serif" font-size="9.00">NO — response</text>
<text text-anchor="middle" x="583.5" y="-388.8" font-family="Helvetica,sans-Serif" font-size="9.00">or stable</text>
</g>
<!-- RELAPSE -->
<g id="node14" class="node">
<title>RELAPSE</title>
<path fill="#fef3c7" stroke="black" stroke-width="1.5" d="M1022.5,-364C1022.5,-364 730.5,-364 730.5,-364 724.5,-364 718.5,-358 718.5,-352 718.5,-352 718.5,-314 718.5,-314 718.5,-308 724.5,-302 730.5,-302 730.5,-302 1022.5,-302 1022.5,-302 1028.5,-302 1034.5,-308 1034.5,-314 1034.5,-314 1034.5,-352 1034.5,-352 1034.5,-358 1028.5,-364 1022.5,-364"/>
<text text-anchor="middle" x="876.5" y="-347" font-family="Helvetica,sans-Serif" font-size="10.00" fill="#78350f">R/R Evaluation</text>
<text text-anchor="middle" x="876.5" y="-336" font-family="Helvetica,sans-Serif" font-size="10.00" fill="#78350f">Repeat TP53 sequencing + FISH (clonal evolution 20–30%)</text>
<text text-anchor="middle" x="876.5" y="-325" font-family="Helvetica,sans-Serif" font-size="10.00" fill="#78350f">Suspect Richter&#39;s if: LDH ↑ + rapid asymmetric LAP</text>
<text text-anchor="middle" x="876.5" y="-314" font-family="Helvetica,sans-Serif" font-size="10.00" fill="#78350f">or weight loss + night sweats</text>
</g>
<!-- DEC_PROG&#45;&gt;RELAPSE -->
<g id="edge15" class="edge">
<title>DEC_PROG&#45;&gt;RELAPSE</title>
<path fill="none" stroke="black" stroke-width="1.3" d="M626.22,-444.59C673.58,-423.66 744.92,-392.14 799.34,-368.1"/>
<polygon fill="black" stroke="black" stroke-width="1.3" points="800.87,-371.24 808.6,-364 798.04,-364.84 800.87,-371.24"/>
<text text-anchor="middle" x="795" y="-398.8" font-family="Helvetica,sans-Serif" font-size="9.00">YES — progression</text>
<text text-anchor="middle" x="795" y="-388.8" font-family="Helvetica,sans-Serif" font-size="9.00">or relapse</text>
</g>
<!-- DEC_RICHTER -->
<g id="node15" class="node">
<title>DEC_RICHTER</title>
<path fill="#fee2e2" stroke="black" stroke-width="1.5" d="M865.26,-252.8C865.26,-252.8 780.74,-221.2 780.74,-221.2 775.12,-219.1 775.12,-214.9 780.74,-212.8 780.74,-212.8 865.26,-181.2 865.26,-181.2 870.88,-179.1 882.12,-179.1 887.74,-181.2 887.74,-181.2 972.26,-212.8 972.26,-212.8 977.88,-214.9 977.88,-219.1 972.26,-221.2 972.26,-221.2 887.74,-252.8 887.74,-252.8 882.12,-254.9 870.88,-254.9 865.26,-252.8"/>
<text text-anchor="middle" x="876.5" y="-220" font-family="Helvetica,sans-Serif" font-size="10.00" fill="#991b1b">Richter&#39;s</text>
<text text-anchor="middle" x="876.5" y="-209" font-family="Helvetica,sans-Serif" font-size="10.00" fill="#991b1b">Transformation?</text>
</g>
<!-- RELAPSE&#45;&gt;DEC_RICHTER -->
<g id="edge16" class="edge">
<title>RELAPSE&#45;&gt;DEC_RICHTER</title>
<path fill="none" stroke="black" stroke-width="1.3" d="M876.5,-301.75C876.5,-291.14 876.5,-278.93 876.5,-267.17"/>
<polygon fill="black" stroke="black" stroke-width="1.3" points="880,-267 876.5,-257 873,-267 880,-267"/>
</g>
<!-- RICHTER -->
<g id="node16" class="node">
<title>RICHTER</title>
<path fill="#fee2e2" stroke="black" stroke-width="1.5" d="M823,-123C823,-123 596,-123 596,-123 590,-123 584,-117 584,-111 584,-111 584,-40 584,-40 584,-34 590,-28 596,-28 596,-28 823,-28 823,-28 829,-28 835,-34 835,-40 835,-40 835,-111 835,-111 835,-117 829,-123 823,-123"/>
<text text-anchor="middle" x="709.5" y="-106" font-family="Helvetica,sans-Serif" font-size="10.00" fill="#991b1b">Richter&#39;s Transformation</text>
<text text-anchor="middle" x="709.5" y="-95" font-family="Helvetica,sans-Serif" font-size="10.00" fill="#991b1b">PET&#45;CT + biopsy of most FDG&#45;avid node</text>
<text text-anchor="middle" x="709.5" y="-84" font-family="Helvetica,sans-Serif" font-size="10.00" fill="#991b1b">───────────────────────────────</text>
<text text-anchor="middle" x="709.5" y="-73" font-family="Helvetica,sans-Serif" font-size="10.00" fill="#991b1b">Clinical trial preferred (no standard of care)</text>
<text text-anchor="middle" x="709.5" y="-62" font-family="Helvetica,sans-Serif" font-size="10.00" fill="#991b1b">R&#45;CHOP if no trial available</text>
<text text-anchor="middle" x="709.5" y="-51" font-family="Helvetica,sans-Serif" font-size="10.00" fill="#991b1b">CAR&#45;T: ORR ~60–65%</text>
<text text-anchor="middle" x="709.5" y="-40" font-family="Helvetica,sans-Serif" font-size="10.00" fill="#991b1b">Bispecific antibodies (epcoritamab) emerging</text>
</g>
<!-- DEC_RICHTER&#45;&gt;RICHTER -->
<g id="edge17" class="edge">
<title>DEC_RICHTER&#45;&gt;RICHTER</title>
<path fill="none" stroke="black" stroke-width="1.3" d="M843.9,-188.77C823.78,-171.96 797.27,-149.81 773.11,-129.64"/>
<polygon fill="black" stroke="black" stroke-width="1.3" points="775.28,-126.89 765.37,-123.17 770.8,-132.26 775.28,-126.89"/>
<text text-anchor="middle" x="848.5" y="-147.8" font-family="Helvetica,sans-Serif" font-size="9.00">YES — PET + biopsy</text>
</g>
<!-- RR_TX -->
<g id="node17" class="node">
<title>RR_TX</title>
<path fill="#eff6ff" stroke="black" stroke-width="1.5" d="M1201.5,-117.5C1201.5,-117.5 887.5,-117.5 887.5,-117.5 881.5,-117.5 875.5,-111.5 875.5,-105.5 875.5,-105.5 875.5,-45.5 875.5,-45.5 875.5,-39.5 881.5,-33.5 887.5,-33.5 887.5,-33.5 1201.5,-33.5 1201.5,-33.5 1207.5,-33.5 1213.5,-39.5 1213.5,-45.5 1213.5,-45.5 1213.5,-105.5 1213.5,-105.5 1213.5,-111.5 1207.5,-117.5 1201.5,-117.5"/>
<text text-anchor="middle" x="1044.5" y="-100.5" font-family="Helvetica,sans-Serif" font-size="10.00" fill="#1e3a5f">R/R CLL Treatment — NICE Commissioned</text>
<text text-anchor="middle" x="1044.5" y="-89.5" font-family="Helvetica,sans-Serif" font-size="10.00" fill="#1e3a5f">───────────────────────────────</text>
<text text-anchor="middle" x="1044.5" y="-78.5" font-family="Helvetica,sans-Serif" font-size="10.00" fill="#1e3a5f">Venetoclax + Rituximab &#160;[TA561] &#160;(MURANO 7yr OS 69.6%)</text>
<text text-anchor="middle" x="1044.5" y="-67.5" font-family="Helvetica,sans-Serif" font-size="10.00" fill="#1e3a5f">Venetoclax monotherapy &#160;[TA796] &#160;(post&#45;BTKi)</text>
<text text-anchor="middle" x="1044.5" y="-56.5" font-family="Helvetica,sans-Serif" font-size="10.00" fill="#1e3a5f">Zanubrutinib &#160;[TA931] &#160;or Acalabrutinib &#160;[TA689] &#160;(if BTKi&#45;naive)</text>
<text text-anchor="middle" x="1044.5" y="-45.5" font-family="Helvetica,sans-Serif" font-size="10.00" fill="#1e3a5f">Pirtobrutinib (BTKi C481S refractory — check NICE TA)</text>
</g>
<!-- DEC_RICHTER&#45;&gt;RR_TX -->
<g id="edge18" class="edge">
<title>DEC_RICHTER&#45;&gt;RR_TX</title>
<path fill="none" stroke="black" stroke-width="1.3" d="M908.89,-189.1C931.01,-170.73 960.93,-145.89 987.04,-124.22"/>
<polygon fill="black" stroke="black" stroke-width="1.3" points="989.55,-126.68 995,-117.6 985.07,-121.3 989.55,-126.68"/>
<text text-anchor="middle" x="1011" y="-147.8" font-family="Helvetica,sans-Serif" font-size="9.00">NO — CLL progression</text>
</g>
</g>
</svg>
