<?xml version="1.0" encoding="UTF-8" standalone="no"?>
<!DOCTYPE svg PUBLIC "-//W3C//DTD SVG 1.1//EN"
 "http://www.w3.org/Graphics/SVG/1.1/DTD/svg11.dtd">
<!-- Generated by graphviz version 2.43.0 (0)
 -->
<!-- Title: ITP Pages: 1 -->
<svg width="1055pt" height="948pt"
 viewBox="0.00 0.00 1054.50 948.43" xmlns="http://www.w3.org/2000/svg" xmlns:xlink="http://www.w3.org/1999/xlink">
<g id="graph0" class="graph" transform="scale(1 1) rotate(0) translate(4 944.43)">
<title>ITP</title>
<polygon fill="white" stroke="transparent" points="-4,4 -4,-944.43 1050.5,-944.43 1050.5,4 -4,4"/>
<!-- START -->
<g id="node1" class="node">
<title>START</title>
<ellipse fill="#1a6b4a" stroke="#145438" stroke-width="1.8" cx="163" cy="-919.21" rx="156.96" ry="21.43"/>
<text text-anchor="middle" x="163" y="-916.41" font-family="Helvetica,sans-Serif" font-size="11.00" fill="white">Isolated thrombocytopenia on FBC</text>
</g>
<!-- FILM -->
<g id="node2" class="node">
<title>FILM</title>
<path fill="#f3f4f6" stroke="#6b7280" stroke-width="1.8" d="M239.5,-857C239.5,-857 86.5,-857 86.5,-857 80.5,-857 74.5,-851 74.5,-845 74.5,-845 74.5,-827 74.5,-827 74.5,-821 80.5,-815 86.5,-815 86.5,-815 239.5,-815 239.5,-815 245.5,-815 251.5,-821 251.5,-827 251.5,-827 251.5,-845 251.5,-845 251.5,-851 245.5,-857 239.5,-857"/>
<text text-anchor="start" x="90.5" y="-839.2" font-family="Helvetica,sans-Serif" font-size="11.00" fill="#111827">Review blood film</text>
<text text-anchor="start" x="90.5" y="-827.2" font-family="Helvetica,sans-Serif" font-size="11.00" fill="#111827">Exclude secondary causes</text>
</g>
<!-- START&#45;&gt;FILM -->
<g id="edge1" class="edge">
<title>START&#45;&gt;FILM</title>
<path fill="none" stroke="black" stroke-width="1.6" d="M163,-897.72C163,-888.22 163,-876.76 163,-866.37"/>
<polygon fill="black" stroke="black" stroke-width="1.6" points="166.15,-866.21 163,-857.21 159.85,-866.21 166.15,-866.21"/>
</g>
<!-- CONFIRMED -->
<g id="node3" class="node">
<title>CONFIRMED</title>
<path fill="#d1fae5" stroke="#1a6b4a" stroke-width="1.8" d="M273.5,-774C273.5,-774 52.5,-774 52.5,-774 46.5,-774 40.5,-768 40.5,-762 40.5,-762 40.5,-750 40.5,-750 40.5,-744 46.5,-738 52.5,-738 52.5,-738 273.5,-738 273.5,-738 279.5,-738 285.5,-744 285.5,-750 285.5,-750 285.5,-762 285.5,-762 285.5,-768 279.5,-774 273.5,-774"/>
<text text-anchor="start" x="56.5" y="-753.2" font-family="Helvetica,sans-Serif" font-size="11.00" fill="#065f46">ITP confirmed &#160;(diagnosis of exclusion)</text>
</g>
<!-- FILM&#45;&gt;CONFIRMED -->
<g id="edge2" class="edge">
<title>FILM&#45;&gt;CONFIRMED</title>
<path fill="none" stroke="black" stroke-width="1.6" d="M163,-814.91C163,-805.24 163,-793.51 163,-783.15"/>
<polygon fill="black" stroke="black" stroke-width="1.6" points="166.15,-783.11 163,-774.11 159.85,-783.11 166.15,-783.11"/>
</g>
<!-- DEC1 -->
<g id="node4" class="node">
<title>DEC1</title>
<polygon fill="#fee2e2" stroke="#991b1b" stroke-width="1.8" points="163,-697 43,-655 163,-613 283,-655 163,-697"/>
<text text-anchor="middle" x="163" y="-658.2" font-family="Helvetica,sans-Serif" font-size="11.00" fill="#991b1b">Life&#45;threatening</text>
<text text-anchor="middle" x="163" y="-646.2" font-family="Helvetica,sans-Serif" font-size="11.00" fill="#991b1b">bleeding?</text>
</g>
<!-- CONFIRMED&#45;&gt;DEC1 -->
<g id="edge3" class="edge">
<title>CONFIRMED&#45;&gt;DEC1</title>
<path fill="none" stroke="black" stroke-width="1.6" d="M163,-737.76C163,-728.93 163,-717.67 163,-706.35"/>
<polygon fill="black" stroke="black" stroke-width="1.6" points="166.15,-706.31 163,-697.31 159.85,-706.31 166.15,-706.31"/>
</g>
<!-- EMERG -->
<g id="node5" class="node">
<title>EMERG</title>
<path fill="#991b1b" stroke="#7f1d1d" stroke-width="1.8" d="M248,-553C248,-553 12,-553 12,-553 6,-553 0,-547 0,-541 0,-541 0,-499 0,-499 0,-493 6,-487 12,-487 12,-487 248,-487 248,-487 254,-487 260,-493 260,-499 260,-499 260,-541 260,-541 260,-547 254,-553 248,-553"/>
<text text-anchor="start" x="16" y="-535.2" font-family="Helvetica,sans-Serif" font-size="11.00" fill="white">EMERGENCY</text>
<text text-anchor="start" x="16" y="-523.2" font-family="Helvetica,sans-Serif" font-size="11.00" fill="white">IV methylprednisolone 1 g/day</text>
<text text-anchor="start" x="16" y="-511.2" font-family="Helvetica,sans-Serif" font-size="11.00" fill="white">IVIG 1 g/kg &#160;+ &#160;Platelet transfusion</text>
<text text-anchor="start" x="16" y="-499.2" font-family="Helvetica,sans-Serif" font-size="11.00" fill="white">Transexamic acid &#160;| &#160;Haematology urgent</text>
</g>
<!-- DEC1&#45;&gt;EMERG -->
<g id="edge4" class="edge">
<title>DEC1&#45;&gt;EMERG</title>
<path fill="none" stroke="#991b1b" stroke-width="1.6" d="M153.63,-616.24C149.45,-599.37 144.5,-579.44 140.22,-562.18"/>
<polygon fill="#991b1b" stroke="#991b1b" stroke-width="1.6" points="143.27,-561.41 138.05,-553.43 137.16,-562.93 143.27,-561.41"/>
<text text-anchor="middle" x="160.5" y="-585" font-family="Helvetica,sans-Serif" font-size="10.00" fill="#991b1b"> &#160;YES</text>
</g>
<!-- DEC2 -->
<g id="node6" class="node">
<title>DEC2</title>
<polygon fill="#fef3c7" stroke="#92400e" stroke-width="1.8" points="473,-562 296,-520 473,-478 650,-520 473,-562"/>
<text text-anchor="middle" x="473" y="-523.2" font-family="Helvetica,sans-Serif" font-size="11.00" fill="#92400e">Platelet &gt;=30 x10u2079/L</text>
<text text-anchor="middle" x="473" y="-511.2" font-family="Helvetica,sans-Serif" font-size="11.00" fill="#92400e">AND no/minimal bleeding?</text>
</g>
<!-- DEC1&#45;&gt;DEC2 -->
<g id="edge5" class="edge">
<title>DEC1&#45;&gt;DEC2</title>
<path fill="none" stroke="black" stroke-width="1.6" d="M215.94,-631.29C267.42,-609.2 345.95,-575.51 402.66,-551.18"/>
<polygon fill="black" stroke="black" stroke-width="1.6" points="404.19,-553.95 411.22,-547.51 401.7,-548.16 404.19,-553.95"/>
<text text-anchor="middle" x="339" y="-585" font-family="Helvetica,sans-Serif" font-size="10.00"> &#160;NO</text>
</g>
<!-- OBSERVE -->
<g id="node7" class="node">
<title>OBSERVE</title>
<path fill="#1a6b4a" stroke="#145438" stroke-width="1.8" d="M493,-421C493,-421 253,-421 253,-421 247,-421 241,-415 241,-409 241,-409 241,-367 241,-367 241,-361 247,-355 253,-355 253,-355 493,-355 493,-355 499,-355 505,-361 505,-367 505,-367 505,-409 505,-409 505,-415 499,-421 493,-421"/>
<text text-anchor="start" x="257" y="-403.2" font-family="Helvetica,sans-Serif" font-size="11.00" fill="white">OBSERVE</text>
<text text-anchor="start" x="257" y="-391.2" font-family="Helvetica,sans-Serif" font-size="11.00" fill="white">Close follow&#45;up</text>
<text text-anchor="start" x="257" y="-379.2" font-family="Helvetica,sans-Serif" font-size="11.00" fill="white">Repeat FBC 1&#45;2 weeks</text>
<text text-anchor="start" x="257" y="-367.2" font-family="Helvetica,sans-Serif" font-size="11.00" fill="white">Patient education on bleeding precautions</text>
</g>
<!-- DEC2&#45;&gt;OBSERVE -->
<g id="edge6" class="edge">
<title>DEC2&#45;&gt;OBSERVE</title>
<path fill="none" stroke="#1a6b4a" stroke-width="1.6" d="M446.2,-484.16C433.04,-467.05 417.12,-446.36 403.5,-428.64"/>
<polygon fill="#1a6b4a" stroke="#1a6b4a" stroke-width="1.6" points="405.8,-426.47 397.81,-421.25 400.8,-430.31 405.8,-426.47"/>
<text text-anchor="middle" x="438.5" y="-450" font-family="Helvetica,sans-Serif" font-size="10.00" fill="#1a6b4a"> &#160;YES</text>
</g>
<!-- FIRSTLINE -->
<g id="node8" class="node">
<title>FIRSTLINE</title>
<path fill="#fffbeb" stroke="#d97706" stroke-width="1.8" d="M860.5,-427C860.5,-427 553.5,-427 553.5,-427 547.5,-427 541.5,-421 541.5,-415 541.5,-415 541.5,-361 541.5,-361 541.5,-355 547.5,-349 553.5,-349 553.5,-349 860.5,-349 860.5,-349 866.5,-349 872.5,-355 872.5,-361 872.5,-361 872.5,-415 872.5,-415 872.5,-421 866.5,-427 860.5,-427"/>
<text text-anchor="start" x="557.5" y="-409.2" font-family="Helvetica,sans-Serif" font-size="11.00" fill="#111827">First&#45;line Treatment &#160;(Strong | Moderate evidence)</text>
<text text-anchor="start" x="557.5" y="-397.2" font-family="Helvetica,sans-Serif" font-size="11.00" fill="#111827">Prednisolone 1 mg/kg/day &#160;(max 80 mg) &#160;x &#160;2&#45;4 weeks</text>
<text text-anchor="start" x="557.5" y="-385.2" font-family="Helvetica,sans-Serif" font-size="11.00" fill="#111827">OR &#160;Dexamethasone 40 mg/day &#160;x &#160;4 days</text>
<text text-anchor="start" x="557.5" y="-373.2" font-family="Helvetica,sans-Serif" font-size="11.00" fill="#111827">Add IVIG 1 g/kg if rapid response needed</text>
<text text-anchor="start" x="557.5" y="-361.2" font-family="Helvetica,sans-Serif" font-size="11.00" fill="#111827">Do NOT extend steroids beyond 6 weeks &#160;(ASH 2019)</text>
</g>
<!-- DEC2&#45;&gt;FIRSTLINE -->
<g id="edge7" class="edge">
<title>DEC2&#45;&gt;FIRSTLINE</title>
<path fill="none" stroke="black" stroke-width="1.6" d="M524.93,-490.15C555.85,-472.97 595.65,-450.86 630.15,-431.7"/>
<polygon fill="black" stroke="black" stroke-width="1.6" points="632,-434.27 638.33,-427.15 628.94,-428.77 632,-434.27"/>
<text text-anchor="middle" x="608" y="-450" font-family="Helvetica,sans-Serif" font-size="10.00"> &#160;NO</text>
</g>
<!-- HPYLORI -->
<g id="node9" class="node">
<title>HPYLORI</title>
<path fill="#eff6ff" stroke="#3b82f6" stroke-width="1.8" d="M833,-308C833,-308 581,-308 581,-308 575,-308 569,-302 569,-296 569,-296 569,-266 569,-266 569,-260 575,-254 581,-254 581,-254 833,-254 833,-254 839,-254 845,-260 845,-266 845,-266 845,-296 845,-296 845,-302 839,-308 833,-308"/>
<text text-anchor="start" x="585" y="-290.2" font-family="Helvetica,sans-Serif" font-size="11.00" fill="#1e40af">Test and treat H. pylori &#160;(Strong | Moderate)</text>
<text text-anchor="start" x="585" y="-278.2" font-family="Helvetica,sans-Serif" font-size="11.00" fill="#1e40af">All newly diagnosed ITP patients</text>
<text text-anchor="start" x="585" y="-266.2" font-family="Helvetica,sans-Serif" font-size="11.00" fill="#1e40af">Response may take several months</text>
</g>
<!-- FIRSTLINE&#45;&gt;HPYLORI -->
<g id="edge8" class="edge">
<title>FIRSTLINE&#45;&gt;HPYLORI</title>
<path fill="none" stroke="black" stroke-width="1.6" d="M707,-348.8C707,-338.58 707,-327.57 707,-317.5"/>
<polygon fill="black" stroke="black" stroke-width="1.6" points="710.15,-317.19 707,-308.19 703.85,-317.19 710.15,-317.19"/>
</g>
<!-- DEC3 -->
<g id="node10" class="node">
<title>DEC3</title>
<polygon fill="#f3f4f6" stroke="#6b7280" stroke-width="1.8" points="707,-213 608,-171 707,-129 806,-171 707,-213"/>
<text text-anchor="middle" x="707" y="-174.2" font-family="Helvetica,sans-Serif" font-size="11.00" fill="#374151">Response</text>
<text text-anchor="middle" x="707" y="-162.2" font-family="Helvetica,sans-Serif" font-size="11.00" fill="#374151">at 4 weeks?</text>
</g>
<!-- HPYLORI&#45;&gt;DEC3 -->
<g id="edge9" class="edge">
<title>HPYLORI&#45;&gt;DEC3</title>
<path fill="none" stroke="black" stroke-width="1.6" d="M707,-253.86C707,-244.3 707,-233.13 707,-222.18"/>
<polygon fill="black" stroke="black" stroke-width="1.6" points="710.15,-222.07 707,-213.07 703.85,-222.07 710.15,-222.07"/>
</g>
<!-- REMISSION -->
<g id="node11" class="node">
<title>REMISSION</title>
<path fill="#d1fae5" stroke="#1a6b4a" stroke-width="1.8" d="M635.5,-66C635.5,-66 462.5,-66 462.5,-66 456.5,-66 450.5,-60 450.5,-54 450.5,-54 450.5,-24 450.5,-24 450.5,-18 456.5,-12 462.5,-12 462.5,-12 635.5,-12 635.5,-12 641.5,-12 647.5,-18 647.5,-24 647.5,-24 647.5,-54 647.5,-54 647.5,-60 641.5,-66 635.5,-66"/>
<text text-anchor="start" x="466.5" y="-48.2" font-family="Helvetica,sans-Serif" font-size="11.00" fill="#065f46">Taper corticosteroids</text>
<text text-anchor="start" x="466.5" y="-36.2" font-family="Helvetica,sans-Serif" font-size="11.00" fill="#065f46">Aim for complete remission</text>
<text text-anchor="start" x="466.5" y="-24.2" font-family="Helvetica,sans-Serif" font-size="11.00" fill="#065f46">Monitor platelet count closely</text>
</g>
<!-- DEC3&#45;&gt;REMISSION -->
<g id="edge10" class="edge">
<title>DEC3&#45;&gt;REMISSION</title>
<path fill="none" stroke="#1a6b4a" stroke-width="1.6" d="M673.88,-142.75C648.82,-122.13 614.33,-93.75 587.94,-72.04"/>
<polygon fill="#1a6b4a" stroke="#1a6b4a" stroke-width="1.6" points="589.68,-69.39 580.73,-66.11 585.68,-74.26 589.68,-69.39"/>
<text text-anchor="middle" x="644.5" y="-101" font-family="Helvetica,sans-Serif" font-size="10.00" fill="#1a6b4a"> &#160;YES</text>
</g>
<!-- SECONDLINE -->
<g id="node12" class="node">
<title>SECONDLINE</title>
<path fill="#f5f3ff" stroke="#7c3aed" stroke-width="1.8" d="M1034.5,-78C1034.5,-78 695.5,-78 695.5,-78 689.5,-78 683.5,-72 683.5,-66 683.5,-66 683.5,-12 683.5,-12 683.5,-6 689.5,0 695.5,0 695.5,0 1034.5,0 1034.5,0 1040.5,0 1046.5,-6 1046.5,-12 1046.5,-12 1046.5,-66 1046.5,-66 1046.5,-72 1040.5,-78 1034.5,-78"/>
<text text-anchor="start" x="699.5" y="-60.2" font-family="Helvetica,sans-Serif" font-size="11.00" fill="#4c1d95">Second&#45;line Options</text>
<text text-anchor="start" x="699.5" y="-48.2" font-family="Helvetica,sans-Serif" font-size="11.00" fill="#4c1d95">TPO&#45;RA: &#160;Romiplostim &#160;(NICE TA221 &#160;| &#160;Strong | High)</text>
<text text-anchor="start" x="699.5" y="-36.2" font-family="Helvetica,sans-Serif" font-size="11.00" fill="#4c1d95">TPO&#45;RA: &#160;Avatrombopag &#160;(NICE TA853 &#160;| &#160;Strong | Moderate)</text>
<text text-anchor="start" x="699.5" y="-24.2" font-family="Helvetica,sans-Serif" font-size="11.00" fill="#4c1d95">Rituximab &#160;(Conditional | Low evidence)</text>
<text text-anchor="start" x="699.5" y="-12.2" font-family="Helvetica,sans-Serif" font-size="11.00" fill="#4c1d95">Splenectomy after &gt;=12 months &#160;(Conditional | Moderate)</text>
</g>
<!-- DEC3&#45;&gt;SECONDLINE -->
<g id="edge11" class="edge">
<title>DEC3&#45;&gt;SECONDLINE</title>
<path fill="none" stroke="black" stroke-width="1.6" d="M740.12,-142.75C760.79,-125.74 787.86,-103.47 811.52,-84"/>
<polygon fill="black" stroke="black" stroke-width="1.6" points="813.79,-86.21 818.74,-78.06 809.79,-81.35 813.79,-86.21"/>
<text text-anchor="middle" x="801" y="-101" font-family="Helvetica,sans-Serif" font-size="10.00"> &#160;NO</text>
</g>
</g>
</svg>
