<?xml version="1.0" encoding="UTF-8"?>
<svg xmlns="http://www.w3.org/2000/svg" viewBox="0 0 900 1280" font-family="Inter, -apple-system, 'Segoe UI', Roboto, sans-serif">
  <title>MCL First-Line Treatment Algorithm — v1.6.0</title>
  <desc>Stepwise MDT decision algorithm for first-line management of mantle cell lymphoma, from new diagnosis through documented MDT outcome. Branches for indolent observation, fit/intensive pathway, older/less fit pathway, and a high-risk biology overlay. Independent educational synthesis; not externally endorsed. For clinical decision support only.</desc>

  <style>
    .title    { font-size: 22px; font-weight: 800; fill: #5a141d; }
    .subtitle { font-size: 13px; fill: #555; }
    .footer   { font-size: 11px; fill: #707070; }
    .step     { font-size: 12px; font-weight: 700; fill: #fff; }
    .label    { font-size: 13px; font-weight: 600; fill: #1a1a1a; }
    .sub      { font-size: 11.5px; fill: #444; }
    .branch-y { font-size: 11px; font-weight: 700; fill: #2e6b3e; }
    .branch-n { font-size: 11px; font-weight: 700; fill: #8b2e2e; }
    .legendlbl{ font-size: 11px; fill: #1a1a1a; }
    .corner   { font-size: 10px; fill: #8a8a8a; }
  </style>

  <!-- Defs: marker arrows -->
  <defs>
    <marker id="arrow" viewBox="0 0 10 10" refX="9" refY="5" markerWidth="9" markerHeight="9" orient="auto-start-reverse">
      <path d="M0,0 L10,5 L0,10 z" fill="#7a1f2b"/>
    </marker>
    <marker id="arrowgrey" viewBox="0 0 10 10" refX="9" refY="5" markerWidth="8" markerHeight="8" orient="auto-start-reverse">
      <path d="M0,0 L10,5 L0,10 z" fill="#888"/>
    </marker>
  </defs>

  <!-- Background -->
  <rect x="0" y="0" width="900" height="1280" fill="#ffffff"/>
  <rect x="0" y="0" width="900" height="60" fill="#fbeaec"/>
  <rect x="0" y="60" width="900" height="3" fill="#7a1f2b"/>

  <!-- Title bar -->
  <text x="40" y="35" class="title">MCL First-Line Treatment Algorithm</text>
  <text x="40" y="52" class="subtitle">MHA-MCL-2026-v1.6.0  ·  Independent UK practice-oriented evidence guide  ·  Not a prescribing protocol</text>

  <!-- Step 1: New MCL diagnosis -->
  <rect x="320" y="90" width="260" height="48" rx="10" fill="#7a1f2b"/>
  <text x="450" y="113" text-anchor="middle" class="step">1.  NEW MCL DIAGNOSIS</text>
  <text x="450" y="130" text-anchor="middle" class="step" font-size="11" font-weight="500">First decision point</text>

  <line x1="450" y1="140" x2="450" y2="170" stroke="#7a1f2b" stroke-width="2" marker-end="url(#arrow)"/>

  <!-- Step 2: Confirm minimum dataset -->
  <rect x="220" y="172" width="460" height="130" rx="10" fill="#ffffff" stroke="#7a1f2b" stroke-width="1.5"/>
  <text x="450" y="194" text-anchor="middle" class="label">2.  Confirm minimum dataset</text>
  <text x="240" y="216" class="sub">•  Tissue diagnosis (excisional / generous core biopsy)</text>
  <text x="240" y="234" class="sub">•  Morphology (classical / blastoid / pleomorphic / leukaemic non-nodal)</text>
  <text x="240" y="252" class="sub">•  Ki-67 (report as percentage)</text>
  <text x="240" y="270" class="sub">•  TP53 — IHC pattern AND NGS</text>
  <text x="240" y="288" class="sub">•  MIPI / MIPI-c</text>

  <line x1="450" y1="304" x2="450" y2="320" stroke="#7a1f2b" stroke-width="2" marker-end="url(#arrow)"/>

  <!-- Step 3: Decision diamond — indolent? -->
  <polygon points="450,322 670,388 450,454 230,388" fill="#fff5f6" stroke="#7a1f2b" stroke-width="1.5"/>
  <text x="450" y="372" text-anchor="middle" class="label">Indolent / non-nodal phenotype</text>
  <text x="450" y="390" text-anchor="middle" class="sub">AND asymptomatic AND low Ki-67?</text>
  <text x="450" y="408" text-anchor="middle" class="sub">(SOX11−, IGHV mutated, non-bulky)</text>

  <!-- Yes branch (left) → Observe -->
  <line x1="230" y1="388" x2="135" y2="388" stroke="#2e6b3e" stroke-width="2" marker-end="url(#arrow)"/>
  <text x="180" y="378" text-anchor="middle" class="branch-y">YES</text>
  <rect x="20" y="358" width="115" height="60" rx="10" fill="#e8f4ec" stroke="#2e6b3e" stroke-width="1.5"/>
  <text x="77" y="382" text-anchor="middle" class="label" fill="#2e6b3e">Observe</text>
  <text x="77" y="398" text-anchor="middle" class="sub">Watch &amp; wait</text>
  <text x="77" y="412" text-anchor="middle" class="sub">Treat on triggers</text>

  <!-- No branch (down) → Assess fitness -->
  <line x1="450" y1="454" x2="450" y2="484" stroke="#7a1f2b" stroke-width="2" marker-end="url(#arrow)"/>
  <text x="468" y="470" class="branch-n">NO</text>

  <!-- Step 4: Assess fitness diamond -->
  <polygon points="450,486 670,548 450,610 230,548" fill="#fff5f6" stroke="#7a1f2b" stroke-width="1.5"/>
  <text x="450" y="538" text-anchor="middle" class="label">Fit for intensive /</text>
  <text x="450" y="556" text-anchor="middle" class="label">cytarabine-based induction?</text>
  <text x="450" y="574" text-anchor="middle" class="sub">ECOG, frailty, renal, cardiac, transplant fitness</text>

  <!-- Branches: FIT (left) and OLDER (right) -->
  <!-- Fit branch -->
  <line x1="230" y1="548" x2="135" y2="548" stroke="#7a1f2b" stroke-width="2"/>
  <line x1="135" y1="548" x2="135" y2="640" stroke="#7a1f2b" stroke-width="2" marker-end="url(#arrow)"/>
  <text x="180" y="538" text-anchor="middle" class="label" font-size="11">FIT</text>

  <!-- Fit boxes -->
  <rect x="20" y="642" width="230" height="78" rx="10" fill="#ffffff" stroke="#2e6b3e" stroke-width="1.5"/>
  <text x="135" y="664" text-anchor="middle" class="label" fill="#2e6b3e">A. Current UK standard</text>
  <text x="32" y="682" class="sub">R-CHOP / R-DHAP cytarabine</text>
  <text x="32" y="698" class="sub">± ASCT consolidation</text>
  <text x="32" y="714" class="sub">+ rituximab maintenance (LYMA)</text>

  <line x1="135" y1="722" x2="135" y2="744" stroke="#7a1f2b" stroke-width="1.5" marker-end="url(#arrow)"/>

  <rect x="20" y="746" width="230" height="76" rx="10" fill="#ffffff" stroke="#b08538" stroke-width="1.5"/>
  <text x="135" y="768" text-anchor="middle" class="label" fill="#b08538">B. Evolving / access-dependent</text>
  <text x="32" y="786" class="sub">TRIANGLE ibrutinib-integrated</text>
  <text x="32" y="802" class="sub">induction + 2-yr maintenance</text>
  <text x="32" y="816" class="sub">Where legitimate access exists</text>

  <!-- Older branch -->
  <line x1="670" y1="548" x2="765" y2="548" stroke="#7a1f2b" stroke-width="2"/>
  <line x1="765" y1="548" x2="765" y2="640" stroke="#7a1f2b" stroke-width="2" marker-end="url(#arrow)"/>
  <text x="720" y="538" text-anchor="middle" class="label" font-size="11">OLDER / LESS FIT</text>

  <rect x="650" y="642" width="230" height="78" rx="10" fill="#ffffff" stroke="#2e6b3e" stroke-width="1.5"/>
  <text x="765" y="664" text-anchor="middle" class="label" fill="#2e6b3e">A. Current UK standard</text>
  <text x="662" y="682" class="sub">Bendamustine-rituximab (BR)</text>
  <text x="662" y="698" class="sub">± rituximab maintenance</text>
  <text x="662" y="714" class="sub">R-CHOP if BR contraindicated</text>

  <line x1="765" y1="722" x2="765" y2="744" stroke="#7a1f2b" stroke-width="1.5" marker-end="url(#arrow)"/>

  <rect x="650" y="746" width="230" height="76" rx="10" fill="#ffffff" stroke="#b08538" stroke-width="1.5"/>
  <text x="765" y="768" text-anchor="middle" class="label" fill="#b08538">B. Evolving / access-dependent</text>
  <text x="662" y="786" class="sub">Acalabrutinib + BR (ECHO)</text>
  <text x="662" y="802" class="sub">NICE GID-TA11091 in dev</text>
  <text x="662" y="816" class="sub">Not routine until final guidance</text>

  <!-- High-risk overlay box (centre) -->
  <line x1="250" y1="784" x2="450" y2="858" stroke="#888" stroke-width="1.2" stroke-dasharray="4,4" marker-end="url(#arrowgrey)"/>
  <line x1="650" y1="784" x2="450" y2="858" stroke="#888" stroke-width="1.2" stroke-dasharray="4,4" marker-end="url(#arrowgrey)"/>

  <rect x="190" y="860" width="520" height="140" rx="12" fill="#fdecec" stroke="#8b2e2e" stroke-width="2"/>
  <text x="450" y="884" text-anchor="middle" class="label" fill="#8b2e2e">High-Risk Biology Overlay</text>
  <text x="450" y="904" text-anchor="middle" class="sub">TP53 mutation  ·  blastoid / pleomorphic  ·  high Ki-67  ·  high MIPI-c  ·  complex karyotype</text>
  <text x="450" y="928" text-anchor="middle" class="sub" font-weight="600" fill="#1a1a1a">Apply across either pathway:</text>
  <text x="450" y="948" text-anchor="middle" class="sub">→  Discuss clinical trial enrolment</text>
  <text x="450" y="966" text-anchor="middle" class="sub">→  Pursue BTKi access route where available</text>
  <text x="450" y="984" text-anchor="middle" class="sub">→  Refer early to JACIE CAR-T centre for forward planning</text>

  <!-- Step 5: Document at MDT (final) -->
  <line x1="450" y1="1000" x2="450" y2="1030" stroke="#7a1f2b" stroke-width="2" marker-end="url(#arrow)"/>

  <rect x="180" y="1032" width="540" height="108" rx="10" fill="#7a1f2b"/>
  <text x="450" y="1056" text-anchor="middle" class="step" font-size="15">5.  Document at MDT</text>
  <text x="200" y="1080" class="step" font-size="11" font-weight="500">•  Evidence basis (peer-reviewed / conference / regulatory)</text>
  <text x="200" y="1097" class="step" font-size="11" font-weight="500">•  Access / funding route (NICE, CAA, CDF, IFR, EAMS, trial, compassionate, exceptional)</text>
  <text x="200" y="1114" class="step" font-size="11" font-weight="500">•  Alternatives discussed and toxicity / interaction review</text>
  <text x="200" y="1131" class="step" font-size="11" font-weight="500">•  Patient preference and informed consent documented</text>

  <!-- Legend -->
  <rect x="20" y="1160" width="860" height="36" rx="6" fill="#f7f5f3" stroke="#e6e1dd" stroke-width="1"/>
  <circle cx="42" cy="1178" r="6" fill="#2e6b3e"/>
  <text x="56" y="1183" class="legendlbl">Current UK standard</text>
  <circle cx="220" cy="1178" r="6" fill="#b08538"/>
  <text x="234" y="1183" class="legendlbl">Evolving / access-dependent</text>
  <circle cx="430" cy="1178" r="6" fill="#8b2e2e"/>
  <text x="444" y="1183" class="legendlbl">High-risk biology overlay</text>
  <circle cx="630" cy="1178" r="6" fill="#7a1f2b"/>
  <text x="644" y="1183" class="legendlbl">MDT decision step</text>

  <!-- Footer -->
  <text x="40" y="1230" class="footer">Independent educational synthesis. Not a NICE, BSH, NHS England, ESMO, or NCCN guideline. Not externally endorsed.</text>
  <text x="40" y="1248" class="footer">For clinical decision support only. Verify current NICE / local commissioning / SmPC before treatment decisions. Local trust policy takes precedence.</text>
  <text x="860" y="1268" text-anchor="end" class="corner">mohsinhaemacademy.com / guidelines / mcl  ·  v1.6.0 May 2026</text>
</svg>
